<svg id="ilustracion_slide_2" data-name="ilustracion slide 2" xmlns="http://www.w3.org/2000/svg" xmlns:xlink="http://www.w3.org/1999/xlink" width="848.954" height="874.583" viewBox="0 0 848.954 874.583">
  <defs>
    <clipPath id="clip-path">
      <rect id="Rectángulo_569" data-name="Rectángulo 569" width="495.298" height="478.637" fill="none"/>
    </clipPath>
  </defs>
  <g id="Grupo_2359" data-name="Grupo 2359" transform="translate(0 212.38)">
    <g id="Grupo_2356" data-name="Grupo 2356" transform="translate(0 280.44)">
      <path id="Trazado_11062" data-name="Trazado 11062" d="M443.364,359.5a10.592,10.592,0,0,0,6.78-2.151c6.228-4.945,5.49-16.078-2.324-35.034-5.432-13.185-13.022-26.667-16.937-31.594A26.355,26.355,0,1,0,389.606,323.5v0C392.316,326.914,425.1,359.5,443.364,359.5Zm.105-10.224Zm.1-.2c-5.259,1.106-34.026-17.347-45.747-32.1a15.858,15.858,0,0,1,24.837-19.723C434.375,312,445.772,344.162,443.573,349.075Zm-49.857-28.84h0Z" transform="translate(-332.024 -251.63)" fill="#ffca32"/>
      <path id="Trazado_11063" data-name="Trazado 11063" d="M384.917,382.826c9.2,0,18.918-10.25,30.343-31.878,8.769-16.6,16.017-35.6,17.7-43.7A34.161,34.161,0,1,0,366.083,293.3v0c-1.69,8.093-2.645,28.41-1.247,47.131,1.992,26.666,7.56,40.054,17.522,42.132A12.48,12.48,0,0,0,384.917,382.826Zm14.6-104.117A21.574,21.574,0,0,1,420.63,304.68c-1.251,6-7.429,22.877-15.77,38.967-11.163,21.534-18.375,26.517-20.021,26.569-1.312-.668-5.929-8.121-7.55-32.319-1.213-18.087-.125-36.028,1.127-42.025v0A21.6,21.6,0,0,1,399.518,278.709Z" transform="translate(-272.155 -266.111)" fill="#ffca32"/>
      <rect id="Rectángulo_570" data-name="Rectángulo 570" width="208.498" height="234.4" transform="translate(263.02 322.8) rotate(170.189)" fill="#502aca"/>
      <rect id="Rectángulo_571" data-name="Rectángulo 571" width="54.886" height="234.4" transform="translate(187.337 335.887) rotate(170.189)" fill="#ffca32"/>
      <path id="Trazado_11064" data-name="Trazado 11064" d="M325.767,420.949,313.123,347.82,518.57,312.293,558.51,543.266l-46.946,8.117C450.291,506.949,389.01,462.533,325.767,420.949Z" transform="translate(-295.49 -220.465)" fill="#502aca" opacity="0.27" style="mix-blend-mode: multiply;isolation: isolate"/>
      <rect id="Rectángulo_572" data-name="Rectángulo 572" width="237.139" height="56.715" transform="matrix(-0.985, 0.17, -0.17, -0.985, 243.334, 124.913)" fill="#5530cc"/>
      <path id="Trazado_11065" data-name="Trazado 11065" d="M369.743,378.043c56.2-4.38,86.3-14.923,86.3-14.923l-9.664-55.886c-45.866,2.6-86.3,14.925-86.3,14.925Z" transform="translate(-286.395 -225.465)" fill="#ffca32"/>
      <path id="Trazado_11066" data-name="Trazado 11066" d="M437,327.769q-10.69,2.807-21.578,4.675c-3.967.682-5.669-5.389-1.676-6.075q10.9-1.867,21.58-4.675c3.925-1.03,5.6,5.045,1.674,6.075Z" transform="translate(-371.758 -211.288)" fill="#b5a6e9" opacity="0.67" style="mix-blend-mode: soft-light;isolation: isolate"/>
      <path id="Trazado_11067" data-name="Trazado 11067" d="M441.958,331.235l-9.564,2.183c-3.947.9-5.633-5.172-1.676-6.075l9.566-2.183c3.947-.9,5.631,5.172,1.674,6.075Z" transform="translate(-410.533 -207.837)" fill="#b5a6e9" opacity="0.67" style="mix-blend-mode: soft-light;isolation: isolate"/>
      <path id="Trazado_11068" data-name="Trazado 11068" d="M403.392,319.974,374.037,325.5c-3.961.746-5.659-5.325-1.674-6.075l29.355-5.524c3.961-.746,5.659,5.325,1.674,6.075Z" transform="translate(-255.919 -218.94)" fill="#ffe9a9" opacity="0.67" style="mix-blend-mode: soft-light;isolation: isolate"/>
      <path id="Trazado_11069" data-name="Trazado 11069" d="M405.37,323.9l-10.214,1.384a3.264,3.264,0,0,1-3.873-2.2c-.42-1.465.515-3.647,2.2-3.873l10.214-1.384a3.263,3.263,0,0,1,3.873,2.2c.42,1.465-.515,3.647-2.2,3.875Z" transform="translate(-299.864 -215.039)" fill="#ffe9a9" opacity="0.67" style="mix-blend-mode: soft-light;isolation: isolate"/>
    </g>
    <g id="Grupo_2357" data-name="Grupo 2357" transform="translate(171.427 137.028)">
      <path id="Trazado_11070" data-name="Trazado 11070" d="M303.484,338.7a17,17,0,0,0,11.745-4.078c9.262-8.218,7.17-25.461-6.582-54.267-9.566-20.037-22.507-40.351-29.011-47.682a41.033,41.033,0,1,0-61.39,54.462v0c6.5,7.331,25.133,22.6,43.886,34.483C280.2,333.063,293.733,338.7,303.484,338.7Zm.684-16.064Zm.141-.324c-2.651.565-13.106-1.283-35.742-15.985-16.675-10.831-32.757-24.026-38.094-30.039a24.688,24.688,0,0,1,36.937-32.767c5.335,6.015,16.52,23.553,25.287,41.4C304.594,309.143,305.182,319.743,304.31,322.308Zm-79.948-40.6h0Z" transform="translate(-20.113 -169.397)" fill="#f73e86"/>
      <path id="Trazado_11071" data-name="Trazado 11071" d="M216.852,376.783c14.655,0,29.2-16.718,45.52-52.16,12.221-26.545,21.876-56.707,23.815-69.431a53.185,53.185,0,1,0-105.157-16.019c-1.939,12.722-1.7,44.393,2.06,73.372,5.361,41.287,15.15,61.627,30.81,64.013A19.42,19.42,0,0,0,216.852,376.783Zm16.687-163.176a34.1,34.1,0,0,1,5.126.39,33.567,33.567,0,0,1,28.13,38.243c-1.438,9.431-9.606,36.2-21.21,61.921-15.245,33.795-25.925,42.468-28.726,42.977-2.523-1.318-10.133-12.781-14.625-49.581-3.416-28.013-3.247-56-1.809-65.43a33.587,33.587,0,0,1,33.115-28.52Z" transform="translate(69.816 -193.987)" fill="#f73e86"/>
      <rect id="Rectángulo_573" data-name="Rectángulo 573" width="387.578" height="341.198" transform="translate(382.914 525.174) rotate(-171.102)" fill="#f73e86"/>
      <path id="Trazado_11072" data-name="Trazado 11072" d="M153.817,369.448c3.657-14.907,17.14-19.92,31.224-20.546,18.484-.823,36.994,3.613,54.574,8.872a325.721,325.721,0,0,1,62.77,26.422L273.9,566.141,262.159,564.3q-3.323-3.594-6.607-7.232c-33.125-36.819-68.242-77.152-89.349-122.326C157.41,415.929,148.681,390.378,153.817,369.448Z" transform="translate(109.014 -40.966)" fill="#f85192"/>
      <path id="Trazado_11073" data-name="Trazado 11073" d="M427.564,324.44C405.5,378.849,344.827,397.434,290.4,390.347a240.585,240.585,0,0,1-44.7-10.356L264.73,258.427,437.614,285.5A164.491,164.491,0,0,1,427.564,324.44Z" transform="translate(-211.956 -130.294)" fill="#f85192"/>
      <path id="Trazado_11074" data-name="Trazado 11074" d="M338.125,382.886c24.129-2.967,50.088,5.277,67.673,22.109,15.909,15.227,25,35.93,30.508,56.932a249.7,249.7,0,0,1,6.681,37.559L274.4,473.094l10.562-67.468C300.956,394.063,318.6,385.286,338.125,382.886Z" transform="translate(-274.401 -7.867)" fill="#f85192"/>
      <path id="Trazado_11075" data-name="Trazado 11075" d="M140.071,360.43l15.969-102,382.914,59.948L495.923,593.236C379.954,511.745,259.178,437.214,140.071,360.43Z" transform="translate(-103.266 -130.294)" fill="#f73e86" opacity="0.26" style="mix-blend-mode: multiply;isolation: isolate"/>
      <path id="Trazado_11076" data-name="Trazado 11076" d="M355.015,329.4l31.455,5.164a8.733,8.733,0,0,1,7.222,9.912l-4.715,31.5a8.727,8.727,0,0,1-3.492,5.762l-83.831,61.125a8.732,8.732,0,0,1-12.2-1.911l-26.738-36.67a8.733,8.733,0,0,1,1.911-12.2l83.827-61.123A8.739,8.739,0,0,1,355.015,329.4Zm21.447,26.9a5.658,5.658,0,1,0-6.206-.972A5.661,5.661,0,0,0,376.461,356.3Z" transform="translate(-198.629 -60.259)" fill="#f73e86" opacity="0.53" style="mix-blend-mode: multiply;isolation: isolate"/>
      <path id="Trazado_11077" data-name="Trazado 11077" d="M358.866,325.255l31.456,5.164a8.733,8.733,0,0,1,7.222,9.91l-4.715,31.5a8.734,8.734,0,0,1-3.492,5.764l-83.831,61.125a8.735,8.735,0,0,1-12.2-1.911l-26.738-36.67a8.735,8.735,0,0,1,1.913-12.2l83.827-61.123A8.728,8.728,0,0,1,358.866,325.255Zm21.449,26.9a5.658,5.658,0,1,0-6.206-.972A5.664,5.664,0,0,0,380.315,352.152Z" transform="translate(-210.144 -64.356)" fill="#f7faff"/>
      <text id="_" data-name="$" transform="matrix(-0.575, -0.818, -0.818, 0.575, 104.318, 329.8)" fill="#502aca" font-size="59" font-family="OpenSans-Bold, Open Sans" font-weight="700" letter-spacing="0.27em"><tspan x="-16.839" y="0">$</tspan></text>
      <path id="Trazado_11078" data-name="Trazado 11078" d="M260.634,379.052c8.049,0,19.292-1.549,25.668-9.212,5.911-7.1,6.321-17.7,1.221-31.508-4.066-11.006-4.257-19.854-.567-26.3,4.551-7.952,13.764-9.679,13.857-9.7a2.982,2.982,0,0,0-1.016-5.878c-.487.082-11.984,2.155-17.975,12.533-4.653,8.057-4.617,18.623.105,31.4,4.307,11.658,4.237,20.28-.211,25.627-8.3,9.97-28.971,6.478-29.184,6.44a4.224,4.224,0,0,0-.825,2.567c-.042,2.658.962,3.525.962,3.525A46.85,46.85,0,0,0,260.634,379.052Z" transform="translate(-89.566 -92.744)" fill="#502aca"/>
      <rect id="Rectángulo_574" data-name="Rectángulo 574" width="395.111" height="76.206" transform="translate(424.235 261.24) rotate(-171.102)" fill="#f970a5"/>
      <rect id="Rectángulo_575" data-name="Rectángulo 575" width="395.111" height="76.206" transform="translate(424.235 261.24) rotate(-171.102)" fill="#fa8bb6" style="mix-blend-mode: hard-light;isolation: isolate"/>
      <path id="Trazado_11079" data-name="Trazado 11079" d="M350.589,304.455q-37.026-3.833-73.806-9.586c-3.78-.591-2.175-6.339,1.587-5.753q35.988,5.628,72.219,9.373c3.78.39,3.822,6.361,0,5.965Z" transform="translate(-185.299 -100.001)" fill="#fcaccb" style="mix-blend-mode: soft-light;isolation: isolate"/>
      <path id="Trazado_11080" data-name="Trazado 11080" d="M332.287,294.567l-12.175-1.475c-3.762-.455-3.808-6.427,0-5.965l12.175,1.475c3.762.455,3.808,6.427,0,5.965Z" transform="translate(-251.787 -101.952)" fill="#fcaccb" style="mix-blend-mode: soft-light;isolation: isolate"/>
    </g>
    <g id="Grupo_2358" data-name="Grupo 2358" transform="translate(463.233)">
      <rect id="Rectángulo_576" data-name="Rectángulo 576" width="296.14" height="488.75" transform="translate(385.721 591.3) rotate(168.761)" fill="#ffca32"/>
      <path id="Trazado_11081" data-name="Trazado 11081" d="M269.961,250.841c-8.659,8.66-106.151-9.966-111.681-10.527l-4.48-22.54,74.764-14.857C238.148,215.736,274.705,246.1,269.961,250.841Z" transform="translate(-153.8 -48.132)" fill="#ffd65f"/>
      <path id="Trazado_11082" data-name="Trazado 11082" d="M243.55,195.754l69.28-13.768q4.7,7.266,9.391,14.533L352.2,347.379c-12.3,2.181-24.734,3.836-36.915,5.57-25.3,3.6-50.732,6.3-76.164,8.789-46.908,4.6-93.847,10.071-140.9,12.817-13.869.809-27.955,1.515-42.025,2.654l-6.5-32.7c36.867-2.666,73.664-6.307,110.529-9.051,36.167-2.692,73.694-6.228,107.411-20.5,12.805-5.422,29.07-13.33,30.94-28.887,1.575-13.117-7.88-24.266-15.076-34.171Q263.256,224.037,243.55,195.754Z" transform="translate(-28.626 -68.82)" fill="#ffd65f"/>
      <path id="Trazado_11083" data-name="Trazado 11083" d="M34.122,305.041c1.768-6.942,144.642,11.159,154.954,11.33l13.551,68.188C183.769,376.9,28.787,326,34.122,305.041Z" transform="translate(152.194 51.241)" fill="#ffd65f"/>
      <path id="Trazado_11084" data-name="Trazado 11084" d="M98.147,435.533,87.919,384.055c59.453,34.958,118.35,70.827,178.96,103.791l-38.619,7.675Q163.12,465.7,98.147,435.533Z" transform="translate(-19.297 130.905)" fill="#ffd65f"/>
      <path id="Trazado_11085" data-name="Trazado 11085" d="M339.64,474.375C237.909,442.922,136.8,409.028,34.072,381L22.579,323.157c57.761,24.883,115.47,49.893,174.4,71.926,50.177,18.763,100.953,35.863,152.109,51.744l6.44,32.413C350.23,477.62,344.931,476.011,339.64,474.375Z" transform="translate(21.979 70.714)" fill="#ffd65f"/>
      <path id="Trazado_11086" data-name="Trazado 11086" d="M224.719,255.675c6.625,0,12.253-1.7,16.094-5.828,19.057-20.486-24.666-80.477-35.509-90.562a42.116,42.116,0,1,0-57.375,61.67C156.582,229.009,198.48,255.675,224.719,255.675ZM176.641,161.92a28.007,28.007,0,0,1,19.184,7.556c6.369,5.925,18,21.795,26.424,38.092,10.99,21.248,10.282,30.745,8.373,32.8s-11.328,3.444-33.316-5.989c-16.864-7.234-33.528-17.685-39.9-23.612A28.2,28.2,0,0,1,175.6,161.94C175.947,161.928,176.295,161.92,176.641,161.92Zm-23.972,53.941h0Z" transform="translate(-90.639 -102.409)" fill="#6b01be"/>
      <path id="Trazado_11087" data-name="Trazado 11087" d="M152.97,206.356c7.715,6.067,22.244,14.806,36.931,21.1,21.988,9.433,31.4,8.041,33.316,5.989s2.617-11.551-8.373-32.8a197.629,197.629,0,0,0-19.427-30.232A116.943,116.943,0,0,0,200.449,155c13.788,15.2,50.76,68.795,32.958,87.931-3.842,4.128-9.469,5.828-16.094,5.828-26.239,0-68.137-26.666-76.79-34.719a41.962,41.962,0,0,1-6-7A65.185,65.185,0,0,0,152.97,206.356Z" transform="translate(-83.233 -95.493)" fill="#6b01be" opacity="0.23" style="mix-blend-mode: multiply;isolation: isolate"/>
      <path id="Trazado_11088" data-name="Trazado 11088" d="M124.6,282.678c13.066,0,28.732-9.61,47.523-29.076,15.818-16.382,31.643-37.911,37.63-51.187h0a54.812,54.812,0,0,0-99.931-45.067c-5.987,13.279-11.646,39.39-13.456,62.092-2.742,34.381,3.16,54.357,18.043,61.068A24.5,24.5,0,0,0,124.6,282.678Zm35.232-133.746A30.949,30.949,0,0,1,188,192.605h0c-4.05,8.984-17.049,27.565-31.787,43.111-19.783,20.866-30.319,23.449-32.065,23.014-1.354-.948-6.387-10.568-3.844-39.209,1.895-21.338,7.218-43.379,11.268-52.365A31,31,0,0,1,159.837,148.932Z" transform="translate(17.469 -125.073)" fill="#720ec1"/>
      <path id="Trazado_11089" data-name="Trazado 11089" d="M40.313,566.848c80.055-105.254,114.152-237.429,111.6-368.292l86.535-17.2L333.7,660.739,43.244,718.458l-24.8-124.79Q29.784,580.625,40.313,566.848Z" transform="translate(52.016 -69.438)" fill="#ffca32" opacity="0.46" style="mix-blend-mode: multiply;isolation: isolate"/>
      <rect id="Rectángulo_577" data-name="Rectángulo 577" width="100.995" height="488.75" transform="translate(291.357 610.052) rotate(168.761)" fill="#ffca32" opacity="0.71" style="mix-blend-mode: multiply;isolation: isolate"/>
      <rect id="Rectángulo_578" data-name="Rectángulo 578" width="83.837" height="488.75" transform="translate(282.915 611.729) rotate(168.761)" fill="#6b01be"/>
      <path id="Trazado_11090" data-name="Trazado 11090" d="M106.215,220.725,189.98,642.26,107.752,658.6l-37.6-189.224C96.984,389.828,105.159,305.071,106.215,220.725Z" transform="translate(92.936 -30.53)" fill="#6b01be" opacity="0.23" style="mix-blend-mode: multiply;isolation: isolate"/>
      <path id="Trazado_11091" data-name="Trazado 11091" d="M143.12,213.489a978,978,0,0,0,17.174,96.344c.859,3.738-4.891,5.333-5.752,1.587a993.723,993.723,0,0,1-17.387-97.931c-.481-3.8,5.488-3.762,5.965,0Z" transform="translate(-10.645 -40.484)" fill="#c194e4" opacity="0.67" style="mix-blend-mode: soft-light;isolation: isolate"/>
      <path id="Trazado_11092" data-name="Trazado 11092" d="M140.29,268.925q1.378,8.706,2.754,17.412c.595,3.756-5.152,5.373-5.752,1.587q-1.375-8.706-2.754-17.414c-.593-3.754,5.154-5.373,5.752-1.585Z" transform="translate(11.885 14.976)" fill="#c194e4" opacity="0.67" style="mix-blend-mode: soft-light;isolation: isolate"/>
      <path id="Trazado_11093" data-name="Trazado 11093" d="M128.52,160.59a43.9,43.9,0,0,1,30.263-30c3.7-1.046,5.279,4.707,1.587,5.752a37.778,37.778,0,0,0-26.1,25.835c-1.078,3.677-6.836,2.112-5.752-1.585Z" transform="translate(4.647 -119.748)" fill="#c79ee6" opacity="0.67" style="mix-blend-mode: soft-light;isolation: isolate"/>
      <path id="Trazado_11094" data-name="Trazado 11094" d="M128.581,137.006a28.8,28.8,0,0,0-10.33-1.416c-3.838.163-3.83-5.8,0-5.965a33.772,33.772,0,0,1,11.916,1.629c3.635,1.181,2.08,6.944-1.587,5.752Z" transform="translate(60.751 -120.604)" fill="#c79ee6" opacity="0.67" style="mix-blend-mode: soft-light;isolation: isolate"/>
      <path id="Trazado_11095" data-name="Trazado 11095" d="M175.343,161.489a40.91,40.91,0,0,0-17.552-7.568c-1.887-.334-1.088-3.207.791-2.875a42.864,42.864,0,0,1,18.265,7.866c1.523,1.133.038,3.722-1.505,2.577Z" transform="translate(-66.697 -99.427)" fill="#caa4e8" opacity="0.67" style="mix-blend-mode: soft-light;isolation: isolate"/>
      <path id="Trazado_11096" data-name="Trazado 11096" d="M175.917,153.654l-6.194.453c-1.915.141-1.907-2.841,0-2.983l6.194-.453c1.915-.141,1.907,2.841,0,2.983Z" transform="translate(-89.579 -99.776)" fill="#caa4e8" opacity="0.67" style="mix-blend-mode: soft-light;isolation: isolate"/>
    </g>
  </g>
  <g id="Grupo_2282" data-name="Grupo 2282" transform="translate(256)">
    <g id="Grupo_2281" data-name="Grupo 2281" transform="translate(0 0)" clip-path="url(#clip-path)">
      <g id="Grupo_2280" data-name="Grupo 2280" transform="translate(18.001 19.562)">
        <g id="Grupo_2275" data-name="Grupo 2275" transform="translate(72.82)">
          <g id="Grupo_2260" data-name="Grupo 2260" transform="translate(214.183 226.9)">
            <g id="Grupo_2247" data-name="Grupo 2247" transform="translate(0.202 101.827)">
              <path id="Trazado_10936" data-name="Trazado 10936" d="M241.369,831.067s3.286,15.484,9.7,22.087a132.274,132.274,0,0,0,4.36-16.721S246.45,828.666,241.369,831.067Z" transform="translate(-241.369 -830.606)" fill="#efc9a2"/>
              <path id="Trazado_10937" data-name="Trazado 10937" d="M247.631,847.224a30,30,0,0,1-5.332-8.6c5.553,8.2,7.892-.562,7.892-.562s.086.016.133.029C249.043,842.981,247.631,847.224,247.631,847.224Z" transform="translate(-237.926 -824.676)" fill="#efc9a2" opacity="0.4" style="mix-blend-mode: multiply;isolation: isolate"/>
            </g>
            <g id="Grupo_2248" data-name="Grupo 2248" transform="translate(3.977)">
              <path id="Trazado_10938" data-name="Trazado 10938" d="M276.13,793.153s-52.214-19.623-58.525-19.275-3.678,4.383-3.678,4.383,20.772,87.862-5.245,133.162c0,0,33.641,24.7,47.569,12.35S281.911,831.173,276.13,793.153Z" transform="translate(-208.683 -773.874)" fill="#355da5"/>
              <path id="Trazado_10939" data-name="Trazado 10939" d="M208.692,911.423c26.016-45.3,5.245-133.162,5.245-133.162s-2.626-4.03,3.678-4.383,58.525,19.275,58.525,19.275a157.147,157.147,0,0,1,1.493,21.342c-.038-.011-42.665-17.99-44.247-9.627s13.178,10.74,16.626,19.316-1.386,14.477,3.012,17.941,4.563,8.567,2.351,14.894-8.307,7.2-8.143,12.5-9.943,11.984-9.943,11.984,2.4-.228-1.626,5.024-15.838,4-15.061,18.388,32.413,20.849,39.95,3.856c1.362-3.073,3.03-3.861,4.817-3.1-2.795,8.743-5.891,15.242-9.107,18.1C242.333,936.124,208.692,911.423,208.692,911.423Z" transform="translate(-208.692 -773.874)" fill="#355da5" opacity="0.4" style="mix-blend-mode: multiply;isolation: isolate"/>
            </g>
            <g id="Grupo_2259" data-name="Grupo 2259" transform="translate(0 35.047)">
              <g id="Grupo_2253" data-name="Grupo 2253">
                <g id="Grupo_2249" data-name="Grupo 2249" transform="translate(7.089)">
                  <path id="Trazado_10940" data-name="Trazado 10940" d="M228.416,812.6s29.224,19.347,34.578,7.282-15.683-18.779-20.892-22.17-13.42-7.824-17.886.21C219.752,805.975,222.936,809.635,228.416,812.6Z" transform="translate(-222.103 -793.4)" fill="#efc9a2"/>
                  <path id="Trazado_10941" data-name="Trazado 10941" d="M249.146,812.639c9.373,5.412,12.244-2.71,12.244-2.71h0a9.714,9.714,0,0,1-.766,2.647c-5.354,12.065-34.578-7.282-34.578-7.282a22.331,22.331,0,0,1-2.755-1.73c-.721-.6-1.12-.955-1.131-.969h0S241.911,808.457,249.146,812.639Z" transform="translate(-219.734 -786.091)" fill="#efc9a2" opacity="0.4" style="mix-blend-mode: multiply;isolation: isolate"/>
                </g>
                <g id="Grupo_2250" data-name="Grupo 2250" transform="translate(5.392 22.737)">
                  <path id="Trazado_10942" data-name="Trazado 10942" d="M224.6,824.062s40.485,16.125,43.376,3.25-22.8-15.752-28.57-18.051-16.385-6.752-19.189,2.01S218.638,822.229,224.6,824.062Z" transform="translate(-218.78 -806.068)" fill="#efc9a2"/>
                  <path id="Trazado_10943" data-name="Trazado 10943" d="M218.906,812.864c.88,5.718,19.051,4.787,35.391,11.715,9.536,4.051,13.766-2.669,13.766-2.669-2.891,12.875-43.376-3.25-43.376-3.25C220.807,817.464,218.965,816.082,218.906,812.864Z" transform="translate(-218.871 -800.666)" fill="#efc9a2" opacity="0.4" style="mix-blend-mode: multiply;isolation: isolate"/>
                </g>
                <g id="Grupo_2251" data-name="Grupo 2251" transform="translate(0.611 39.826)">
                  <path id="Trazado_10944" data-name="Trazado 10944" d="M227.26,833.584s40.486,16.129,43.376,3.247-22.8-15.752-28.572-18.053-16.382-6.747-19.187,2.016S221.3,831.75,227.26,833.584Z" transform="translate(-221.444 -815.589)" fill="#efc9a2"/>
                  <path id="Trazado_10945" data-name="Trazado 10945" d="M221.54,821.615c1.989,9.323,6.817.756,30.511,11.764,15.179,7.05,18.779-2.52,18.779-2.52h0a9.045,9.045,0,0,1-.188,1.183c-2.89,12.881-43.376-3.247-43.376-3.247C222.867,827.438,221.059,825.871,221.54,821.615Z" transform="translate(-221.45 -810.799)" fill="#efc9a2" opacity="0.4" style="mix-blend-mode: multiply;isolation: isolate"/>
                </g>
                <g id="Grupo_2252" data-name="Grupo 2252" transform="translate(0 57.263)">
                  <path id="Trazado_10946" data-name="Trazado 10946" d="M236.98,843.3S263,852.672,263.7,842.51s-6.142-11.715-11.914-14.016-16.383-6.749-19.187,2.016S231.023,841.462,236.98,843.3Z" transform="translate(-231.163 -825.304)" fill="#efc9a2"/>
                  <path id="Trazado_10947" data-name="Trazado 10947" d="M236.941,839.244c-4.923-1.515-6.569-3.335-5.429-8.841,1.472,10.195,12.025,7.172,23.035,11.006,7.9,2.753,9.157-4.092,9.15-4.837.018.6.007,1.22-.038,1.886C262.957,848.62,236.941,839.244,236.941,839.244Z" transform="translate(-231.124 -821.251)" fill="#efc9a2" opacity="0.4" style="mix-blend-mode: multiply;isolation: isolate"/>
                </g>
              </g>
              <g id="Grupo_2258" data-name="Grupo 2258" transform="translate(51.964 9.015)">
                <g id="Grupo_2254" data-name="Grupo 2254" transform="translate(0)">
                  <path id="Trazado_10948" data-name="Trazado 10948" d="M246.051,870.7,233.7,865.885s4.2-22.252-1.754-36.089-16.15-27.628-16.15-27.628-6.379-11.609-24.135,6.05c-7.285,7.251-3.191,17.507,8.834,15.459,6.137-1.045,7.542-2.4,7.542-2.4s-3.593,58.006-18.86,81.307c0,0,18.065,6.406,28.055-2.877l16.825,6.653S246.485,882,246.051,870.7Z" transform="translate(-188.038 -798.422)" fill="#efc9a2"/>
                  <path id="Trazado_10949" data-name="Trazado 10949" d="M206.6,893.262c3.249-4.087,6.347-11.735,9.078-21.5,7.7-26.309,9.778-59.8,9.778-59.8a33.782,33.782,0,0,0,4.525-1.8c1.874-.964-10.733,23.116-1.19,39.812,0,0-9.768,14.651-10.164,24.478s-1.213,20.359,8.136,20.1c-9.484,2.477-20.167-1.287-20.167-1.287Z" transform="translate(-205.46 -789.111)" fill="#efc9a2" opacity="0.5" style="mix-blend-mode: multiply;isolation: isolate"/>
                </g>
                <g id="Grupo_2257" data-name="Grupo 2257" transform="translate(38.503 59.432)">
                  <path id="Trazado_10950" data-name="Trazado 10950" d="M222.005,844.61l-32.426-11.826s-12.248,41.567-19.716,57.055l33.158,12.892S216.206,874.3,222.005,844.61Z" transform="translate(-169.863 -830.542)" fill="#fff"/>
                  <g id="Grupo_2256" data-name="Grupo 2256" transform="translate(11.037)">
                    <path id="Trazado_10951" data-name="Trazado 10951" d="M123.358,831.535s-10.625,46.149-26.6,78.618L246.3,963.6l22.775-90.014S138.645,833.123,123.358,831.535Z" transform="translate(-96.76 -831.535)" fill="#313131"/>
                    <g id="Grupo_2255" data-name="Grupo 2255" transform="translate(0 28.526)">
                      <path id="Trazado_10952" data-name="Trazado 10952" d="M124.317,866.1Z" transform="translate(-1.464 -832.586)" fill="#434244"/>
                      <path id="Trazado_10953" data-name="Trazado 10953" d="M101.806,897.52c7.752-15.76,14.24-34.725,18.869-50.093h0c-7.528,47.551,34.9,69.306,85.239,72.4,42.9,2.646,56.012-13.348,59.149-23.071l-13.718,54.212Z" transform="translate(-101.806 -847.428)" fill="#313131" opacity="0.3" style="mix-blend-mode: multiply;isolation: isolate"/>
                    </g>
                  </g>
                </g>
              </g>
            </g>
          </g>
          <g id="Grupo_2274" data-name="Grupo 2274" transform="translate(0)">
            <g id="Grupo_2262" data-name="Grupo 2262" transform="translate(298.358 201.22)">
              <path id="Trazado_10954" data-name="Trazado 10954" d="M203.607,759.566s14.827,10.6,14.7,20.2-8.192,25.325-14.1,29.924-21.768,2.949-21.768,2.949S200.448,786.1,203.607,759.566Z" transform="translate(-182.435 -759.566)" fill="#ebb941"/>
              <g id="Grupo_2261" data-name="Grupo 2261" transform="translate(0)" opacity="0.4" style="mix-blend-mode: multiply;isolation: isolate">
                <path id="Trazado_10955" data-name="Trazado 10955" d="M187.351,762.391l-.007,0a.132.132,0,0,0-.036-.027C187.322,762.372,187.339,762.381,187.351,762.391Z" transform="translate(-160.227 -757.344)" fill="#ebb941"/>
                <path id="Trazado_10956" data-name="Trazado 10956" d="M201.313,809.285c5.433.849,13.614-7.734,13.646-7.768a31.287,31.287,0,0,1-6.548,8.17c-5.916,4.6-21.768,2.949-21.768,2.949s18.013-26.537,21.172-53.07A58.569,58.569,0,0,1,213,763.9c-3.012-2.531-5.232-.007-4.177,14.535C209.968,794.183,186.9,807.042,201.313,809.285Z" transform="translate(-186.644 -759.566)" fill="#ebb941"/>
              </g>
            </g>
            <g id="Grupo_2265" data-name="Grupo 2265" transform="translate(166.173 141.174)">
              <g id="Grupo_2264" data-name="Grupo 2264">
                <g id="Grupo_2263" data-name="Grupo 2263" transform="translate(12.889)">
                  <path id="Trazado_10957" data-name="Trazado 10957" d="M221.1,726.134s13.517-.81,34.6,7.124c75.376,28.369,74.642,38.367,74.642,38.367s8.016,46.912-27.594,73.853l-89.224-32.709S194.411,807,190.6,801.484C190.6,801.484,189.924,755.43,221.1,726.134Z" transform="translate(-190.596 -726.111)" fill="#b2d5f2"/>
                  <path id="Trazado_10958" data-name="Trazado 10958" d="M251.706,741.1c11.092,23.024-.126,38.758-9.94,48.92s22.147,32.76,57.559,30.4c24.808-1.66,31.1-28.154,31.1-28.154h0c-2.714,14.716-9.75,32.178-26.8,45.074L214.4,804.626s-19.113-5.763-22.927-11.284c0,0-.031-2.49.3-6.652C197.756,779.852,241.156,719.2,251.706,741.1Z" transform="translate(-191.468 -717.969)" fill="#b2d5f2" opacity="0.4" style="mix-blend-mode: multiply;isolation: isolate"/>
                </g>
                <path id="Trazado_10959" data-name="Trazado 10959" d="M238.036,757.353c-8.6,22.007-.443,44.241,18.21,49.672s40.747-8.028,49.346-30.037.445-44.249-18.209-49.676S246.635,735.343,238.036,757.353Z" transform="translate(-234.613 -726.11)" fill="#9bcdc8"/>
              </g>
              <path id="Trazado_10960" data-name="Trazado 10960" d="M194.251,734.476l3.679,9.283,61.325,26.456s-1.752-6.481-10.337-10.685S194.251,734.476,194.251,734.476Z" transform="translate(-112.408 -719.462)" fill="#fff" opacity="0.3"/>
            </g>
            <g id="Grupo_2273" data-name="Grupo 2273">
              <g id="Grupo_2266" data-name="Grupo 2266" transform="translate(64.004 50.611)">
                <path id="Trazado_10961" data-name="Trazado 10961" d="M317.265,675.654s-10.053,139.921-79.549,190.68c0,0,86.181-25.772,108.587-23.717,26.524,2.432,49.05-2.47,58.765-25.216s-1.447-39.725-16-47.328C368.485,759.332,329.343,702.333,317.265,675.654Z" transform="translate(-237.716 -675.654)" fill="#4275bb"/>
                <path id="Trazado_10962" data-name="Trazado 10962" d="M317.265,675.654c2.691,5.941,5.37,10.647,5.37,10.647,1.761,29.672,6.228,67.958-17.333,111.851-18.431,34.332,13.58,36,13.58,36,12-1.493,35.536,10.017,67.763-11.97,19.261-13.136,11.327-42.059-.573-48.4-6.722-3.582-11.711-15.61-11.711-15.61v-.005c5.419,5.48,10.46,9.68,14.7,11.9,14.558,7.6,25.72,24.573,16,47.328s-32.241,27.648-58.765,25.216c-22.405-2.055-108.587,23.717-108.587,23.717C307.212,815.575,317.265,675.654,317.265,675.654Z" transform="translate(-237.716 -675.654)" fill="#4275bb" opacity="0.4" style="mix-blend-mode: multiply;isolation: isolate"/>
              </g>
              <g id="Grupo_2272" data-name="Grupo 2272">
                <g id="Grupo_2267" data-name="Grupo 2267" transform="translate(10.024 12.585)">
                  <path id="Trazado_10963" data-name="Trazado 10963" d="M310.678,754.307c-23.706,63.753-22.664,122.974,2.328,132.264s64.476-34.852,88.181-98.6S423.857,665,398.862,655.7,334.386,690.556,310.678,754.307Z" transform="translate(-293.558 -654.468)" fill="#2a3c86"/>
                  <path id="Trazado_10964" data-name="Trazado 10964" d="M332.9,752.755c17.925-48.2,44.868-85.178,67.747-96.335-16.913,17.735-33.9,46-46.461,79.774-23.7,63.76-22.662,122.976,2.328,132.266,6.1,2.265,13.054,1.337,20.434-2.265-15.01,15.748-29.972,23.2-41.719,18.824C310.238,875.729,309.2,816.508,332.9,752.755Z" transform="translate(-315.782 -652.916)" fill="#2a3c86" opacity="0.2" style="mix-blend-mode: multiply;isolation: isolate"/>
                </g>
                <g id="Grupo_2271" data-name="Grupo 2271" transform="translate(56.14 103.437)">
                  <g id="Grupo_2269" data-name="Grupo 2269" transform="translate(6.812 0.477)">
                    <g id="Grupo_2268" data-name="Grupo 2268">
                      <path id="Trazado_10965" data-name="Trazado 10965" d="M313.39,705.352l-18.871,50.7,45.04,31.114s20.993-52.616,25.061-71.444Z" transform="translate(-294.519 -705.352)" fill="#e0952f"/>
                      <path id="Trazado_10966" data-name="Trazado 10966" d="M364.62,712.669c-4.069,18.828-25.061,71.444-25.061,71.444L294.519,753l9.491-25.5c7.486-3.8,14.465-4.789,13.172,5.069-2.656,20.242-.558,27.827,10.46,22.856,30.584-13.794,19.806-46.218,19.8-46.234Z" transform="translate(-294.519 -702.302)" fill="#e0952f" opacity="0.4" style="mix-blend-mode: multiply;isolation: isolate"/>
                    </g>
                  </g>
                  <g id="Grupo_2270" data-name="Grupo 2270">
                    <path id="Trazado_10967" data-name="Trazado 10967" d="M322.288,726c-5.212,14-3.511,27.551,3.791,30.265s17.448-6.427,22.663-20.433,3.511-27.549-3.792-30.265S327.491,711.994,322.288,726Z" transform="translate(-319.266 -705.086)" fill="#f2d031"/>
                    <path id="Trazado_10968" data-name="Trazado 10968" d="M325.6,722.61a45.915,45.915,0,0,1,7.479-13.264,50.259,50.259,0,0,0-2.929,6.427c-5.209,14.005-3.511,27.554,3.8,30.27,4.582,1.7,10.281-1.267,15.177-7.165-5.535,10.223-13.621,16.267-19.733,14C322.093,750.161,320.391,736.612,325.6,722.61Z" transform="translate(-322.582 -701.7)" fill="#f2d031" opacity="0.4" style="mix-blend-mode: multiply;isolation: isolate"/>
                  </g>
                </g>
                <path id="Trazado_10969" data-name="Trazado 10969" d="M303.223,756.245c26.336-70.81,73.176-118.726,104.618-107.032s35.587,78.57,9.253,149.375S343.925,917.3,312.481,905.609,276.893,827.043,303.223,756.245Zm12.146,135.9c24.993,9.3,64.476-34.852,88.181-98.6s22.671-122.969-2.324-132.268-64.476,34.852-88.185,98.6S290.378,882.854,315.369,892.144Z" transform="translate(-285.898 -647.456)" fill="#5494d2"/>
              </g>
            </g>
          </g>
        </g>
        <g id="Grupo_2279" data-name="Grupo 2279" transform="translate(0 27.678)">
          <g id="Grupo_2276" data-name="Grupo 2276" transform="translate(0 106.647)">
            <path id="Trazado_10970" data-name="Trazado 10970" d="M377.864,736.149c.11,0,.215,0,.325-.011l55.2-3.372a5.24,5.24,0,0,0-.639-10.46l-55.2,3.372a5.24,5.24,0,0,0,.312,10.471Z" transform="translate(-372.63 -722.296)" fill="#467cbe"/>
          </g>
          <g id="Grupo_2277" data-name="Grupo 2277" transform="translate(12.249 41.884)">
            <path id="Trazado_10971" data-name="Trazado 10971" d="M427.054,724.5a5.24,5.24,0,0,0,2.3-9.951l-57.04-27.8a5.24,5.24,0,1,0-4.593,9.419l57.04,27.8A5.189,5.189,0,0,0,427.054,724.5Z" transform="translate(-364.776 -686.213)" fill="#467cbe"/>
          </g>
          <g id="Grupo_2278" data-name="Grupo 2278" transform="translate(54.742)">
            <path id="Trazado_10972" data-name="Trazado 10972" d="M392.351,708.321a5.242,5.242,0,0,0,3.857-8.788l-32.124-34.962a5.241,5.241,0,0,0-7.718,7.091l32.124,34.962A5.233,5.233,0,0,0,392.351,708.321Z" transform="translate(-354.984 -662.877)" fill="#467cbe"/>
          </g>
        </g>
      </g>
    </g>
  </g>
</svg>
