<svg id="ilustracion_B_slide_3" data-name="ilustracion B slide 3" xmlns="http://www.w3.org/2000/svg" width="653.004" height="688.281" viewBox="0 0 653.004 688.281">
  <g id="Grupo_2376" data-name="Grupo 2376" transform="translate(145.037 116.033) rotate(-19)">
    <rect id="Rectángulo_583" data-name="Rectángulo 583" width="343.814" height="525.181" rx="4.467" transform="translate(12.588 0)" fill="#bf0811"/>
    <rect id="Rectángulo_584" data-name="Rectángulo 584" width="343.814" height="525.181" rx="4.467" fill="#ff5353"/>
    <rect id="Rectángulo_585" data-name="Rectángulo 585" width="56.703" height="523.967" transform="translate(219.602 0)" fill="#283947"/>
    <g id="Grupo_2375" data-name="Grupo 2375" transform="translate(46.659 36.033)">
      <ellipse id="Elipse_92" data-name="Elipse 92" cx="30.418" cy="30.418" rx="30.418" ry="30.418" fill="#ec8764"/>
      <ellipse id="Elipse_93" data-name="Elipse 93" cx="30.418" cy="30.418" rx="30.418" ry="30.418" transform="translate(0 41.163)" fill="#fcba99"/>
    </g>
    <rect id="Rectángulo_586" data-name="Rectángulo 586" width="33.608" height="275.26" transform="translate(169.101 36.038)" fill="#edece3"/>
  </g>
  <g id="Grupo_2378" data-name="Grupo 2378" transform="translate(0 458.019) rotate(-19)">
    <rect id="Rectángulo_587" data-name="Rectángulo 587" width="84.867" height="243.529" transform="translate(84.867 243.529) rotate(180)" fill="#ff5353"/>
    <rect id="Rectángulo_588" data-name="Rectángulo 588" width="243.53" height="243.529" transform="translate(84.866 0)" fill="#bf0811"/>
    <rect id="Rectángulo_589" data-name="Rectángulo 589" width="57.552" height="23.332" transform="translate(260.258 209.316)" fill="#f4f5f7"/>
    <g id="Grupo_2377" data-name="Grupo 2377" transform="translate(179.775 0)">
      <path id="Trazado_11108" data-name="Trazado 11108" d="M7.578,60.872l6.529,8.539L24.363,56.14l10.672,12.1,8.2-10.045,10.473,11.44V0H0V67.79Z" fill="#680475"/>
    </g>
  </g>
</svg>
