<svg id="ilustracion_A_slide_3" data-name="ilustracion A slide 3" xmlns="http://www.w3.org/2000/svg" width="860.198" height="781.958" viewBox="0 0 860.198 781.958">
  <g id="Grupo_2411" data-name="Grupo 2411" transform="matrix(0.883, 0.469, -0.469, 0.883, 240.607, 0)">
    <g id="Grupo_2374" data-name="Grupo 2374">
      <rect id="Rectángulo_580" data-name="Rectángulo 580" width="151.161" height="155.695" transform="translate(202.688 140.182)" fill="#0f9432"/>
      <rect id="Rectángulo_581" data-name="Rectángulo 581" width="112.464" height="149.106" transform="translate(444.48 146.771)" fill="#a92fb8"/>
      <rect id="Rectángulo_582" data-name="Rectángulo 582" width="151.161" height="207.23" transform="translate(351.324 88.647)" fill="#680475"/>
      <g id="Grupo_2373" data-name="Grupo 2373" transform="translate(0)">
        <g id="Grupo_2370" data-name="Grupo 2370" transform="translate(150.654 53.138)">
          <g id="Grupo_2360" data-name="Grupo 2360" transform="translate(0 0.005)">
            <path id="Trazado_11097" data-name="Trazado 11097" d="M862.63,443.235H499.093a7.108,7.108,0,0,1-6.992-5.825L448.6,199.838a7.111,7.111,0,0,1,6.993-8.387H949.631A7.11,7.11,0,0,1,956.307,201l-87,237.569A7.1,7.1,0,0,1,862.63,443.235ZM505.017,429.02H857.665l81.792-223.353H464.118Z" transform="translate(-448.481 -191.451)" fill="#edece3"/>
          </g>
          <g id="Grupo_2366" data-name="Grupo 2366" transform="translate(71.496)">
            <g id="Grupo_2361" data-name="Grupo 2361" transform="translate(0 0.006)">
              <path id="Trazado_11098" data-name="Trazado 11098" d="M516.418,443.235a7.107,7.107,0,0,1-7-5.951L470.264,199.715a7.107,7.107,0,1,1,14.024-2.314L523.44,434.97a7.109,7.109,0,0,1-5.855,8.173A7.792,7.792,0,0,1,516.418,443.235Z" transform="translate(-470.168 -191.451)" fill="#edece3"/>
            </g>
            <g id="Grupo_2362" data-name="Grupo 2362" transform="translate(88.895 0.005)">
              <path id="Trazado_11099" data-name="Trazado 11099" d="M512.935,443.235a7.109,7.109,0,0,1-7.1-6.847l-8.7-237.569a7.107,7.107,0,1,1,14.205-.518l8.7,237.566a7.106,7.106,0,0,1-6.844,7.365C513.113,443.235,513.024,443.235,512.935,443.235Z" transform="translate(-497.133 -191.451)" fill="#edece3"/>
            </g>
            <g id="Grupo_2363" data-name="Grupo 2363" transform="translate(151.69 0.009)">
              <path id="Trazado_11100" data-name="Trazado 11100" d="M523.3,443.233q-.385,0-.781-.04a7.116,7.116,0,0,1-6.294-7.846l26.1-237.566a7.109,7.109,0,0,1,14.133,1.549L530.356,436.9A7.107,7.107,0,0,1,523.3,443.233Z" transform="translate(-516.18 -191.452)" fill="#edece3"/>
            </g>
            <g id="Grupo_2364" data-name="Grupo 2364" transform="translate(205.786 0.001)">
              <path id="Trazado_11101" data-name="Trazado 11101" d="M539.706,443.238a6.914,6.914,0,0,1-1.652-.195,7.107,7.107,0,0,1-5.271-8.562l56.549-237.566a7.108,7.108,0,0,1,13.83,3.29L546.613,437.779A7.11,7.11,0,0,1,539.706,443.238Z" transform="translate(-532.589 -191.45)" fill="#edece3"/>
            </g>
            <g id="Grupo_2365" data-name="Grupo 2365" transform="translate(264.232)">
              <path id="Trazado_11102" data-name="Trazado 11102" d="M557.427,443.239a7.1,7.1,0,0,1-6.712-9.445l82.649-237.566a7.106,7.106,0,1,1,13.424,4.668L564.139,438.469A7.105,7.105,0,0,1,557.427,443.239Z" transform="translate(-550.317 -191.449)" fill="#edece3"/>
            </g>
          </g>
          <g id="Grupo_2367" data-name="Grupo 2367" transform="translate(10.266 56.069)">
            <path id="Trazado_11103" data-name="Trazado 11103" d="M919.734,222.673H458.7a7.108,7.108,0,1,1,0-14.216H919.734a7.108,7.108,0,0,1,0,14.216Z" transform="translate(-451.595 -208.457)" fill="#edece3"/>
          </g>
          <g id="Grupo_2368" data-name="Grupo 2368" transform="translate(23.318 118.789)">
            <path id="Trazado_11104" data-name="Trazado 11104" d="M888.89,241.7H462.662a7.108,7.108,0,0,1,0-14.215H888.89a7.108,7.108,0,1,1,0,14.215Z" transform="translate(-455.554 -227.482)" fill="#edece3"/>
          </g>
          <g id="Grupo_2369" data-name="Grupo 2369" transform="translate(33.284 181.513)">
            <path id="Trazado_11105" data-name="Trazado 11105" d="M859.974,260.723H465.685a7.108,7.108,0,1,1,0-14.215H859.974a7.108,7.108,0,1,1,0,14.215Z" transform="translate(-458.577 -246.508)" fill="#edece3"/>
          </g>
        </g>
        <g id="Grupo_2371" data-name="Grupo 2371" transform="translate(59.232 11.845)">
          <path id="Trazado_11106" data-name="Trazado 11106" d="M576.208,545.392a7.11,7.11,0,0,1-6.983-5.832l-63.268-346.42h-78.1a7.108,7.108,0,1,1,0-14.215h84.027a7.11,7.11,0,0,1,6.992,5.832L583.21,537a7.108,7.108,0,0,1-5.713,8.271A7.455,7.455,0,0,1,576.208,545.392Z" transform="translate(-420.75 -178.924)" fill="#edece3"/>
        </g>
        <g id="Grupo_2372" data-name="Grupo 2372">
          <path id="Trazado_11107" data-name="Trazado 11107" d="M495.754,213.24H421.739a18.955,18.955,0,1,1,0-37.909h74.015a18.955,18.955,0,0,1,0,37.909Z" transform="translate(-402.783 -175.331)" fill="#283947"/>
        </g>
      </g>
    </g>
    <g id="Grupo_2394" data-name="Grupo 2394" transform="translate(314.7 142.22)">
      <g id="Grupo_2389" data-name="Grupo 2389" transform="translate(24.176 -6.671)">
        <g id="Grupo_2379" data-name="Grupo 2379" transform="translate(68.73)">
          <path id="Trazado_11109" data-name="Trazado 11109" d="M407.356,307.524a4.383,4.383,0,0,0,4.386-4.381V265.4a51.4,51.4,0,1,1,102.806,0v37.739a4.383,4.383,0,0,0,8.767,0V265.4a60.171,60.171,0,0,0-120.342,0v37.739A4.383,4.383,0,0,0,407.356,307.524Z" transform="translate(-402.973 -205.233)" fill="#b6be9d"/>
        </g>
        <g id="Grupo_2384" data-name="Grupo 2384" transform="translate(0 80.137)">
          <g id="Grupo_2380" data-name="Grupo 2380" transform="translate(59.201)">
            <path id="Trazado_11110" data-name="Trazado 11110" d="M364.239,236.7H572.774l19.993,291.263H384.232Z" transform="translate(-364.239 -236.696)" fill="#e34d55"/>
          </g>
          <g id="Grupo_2381" data-name="Grupo 2381" transform="translate(6.322 0.001)">
            <path id="Trazado_11111" data-name="Trazado 11111" d="M469.241,236.7h34.885l19.592,291.089H446.113Z" transform="translate(-446.113 -236.696)" fill="#e34d55"/>
          </g>
          <g id="Grupo_2382" data-name="Grupo 2382" transform="translate(0 265.831)">
            <path id="Trazado_11112" data-name="Trazado 11112" d="M525.307,366.5l-39.663-25.432L446.112,366.5Z" transform="translate(-446.112 -341.065)" fill="#e34d55"/>
          </g>
          <g id="Grupo_2383" data-name="Grupo 2383" transform="translate(0)">
            <path id="Trazado_11113" data-name="Trazado 11113" d="M501.217,502.528V236.7h-15.93l-23.6,291.263Z" transform="translate(-461.685 -236.696)" fill="#e34d55"/>
          </g>
        </g>
        <g id="Grupo_2387" data-name="Grupo 2387" transform="translate(101.495 86.439)">
          <g id="Grupo_2385" data-name="Grupo 2385" transform="translate(111.573)">
            <path id="Trazado_11114" data-name="Trazado 11114" d="M396.016,262.114a11.472,11.472,0,1,1,11.472-11.472A11.473,11.473,0,0,1,396.016,262.114Zm0-15.667a4.194,4.194,0,1,0,4.195,4.2A4.193,4.193,0,0,0,396.016,246.447Z" transform="translate(-384.544 -239.17)" fill="#283947"/>
          </g>
          <g id="Grupo_2386" data-name="Grupo 2386" transform="translate(0)">
            <path id="Trazado_11115" data-name="Trazado 11115" d="M439.821,262.114a11.472,11.472,0,1,1,11.472-11.472A11.472,11.472,0,0,1,439.821,262.114Zm0-15.667a4.194,4.194,0,1,0,4.192,4.2A4.194,4.194,0,0,0,439.821,246.447Z" transform="translate(-428.349 -239.17)" fill="#283947"/>
          </g>
        </g>
        <g id="Grupo_2388" data-name="Grupo 2388" transform="translate(108.581)">
          <path id="Trazado_11116" data-name="Trazado 11116" d="M391.71,307.524a4.383,4.383,0,0,0,4.386-4.381V265.4a51.4,51.4,0,1,1,102.806,0v37.739a4.383,4.383,0,0,0,8.767,0V265.4a60.171,60.171,0,0,0-120.342,0v37.739A4.383,4.383,0,0,0,391.71,307.524Z" transform="translate(-387.327 -205.233)" fill="#edece3"/>
        </g>
      </g>
      <g id="Grupo_2393" data-name="Grupo 2393" transform="translate(207.587 6.211)">
        <g id="Grupo_2392" data-name="Grupo 2392" transform="translate(68.472 29.998)">
          <g id="Grupo_2390" data-name="Grupo 2390">
            <path id="Trazado_11117" data-name="Trazado 11117" d="M327.106,242.584l27.951-23.135,24.334,2.746,56.832,68.671-54.137,44.8L325.252,267Zm21.853-2.05a2.15,2.15,0,1,0-3.028-.285A2.149,2.149,0,0,0,348.96,240.533Z" transform="translate(-325.252 -219.449)" fill="#283947"/>
            <path id="Trazado_11118" data-name="Trazado 11118" d="M369.309,237.321a7.436,7.436,0,1,1,.986-10.468A7.437,7.437,0,0,1,369.309,237.321Zm-6.113-7.384a2.15,2.15,0,1,0,3.028.285A2.149,2.149,0,0,0,363.2,229.938Z" transform="translate(-342.232 -212.164)" fill="#edece3"/>
          </g>
          <g id="Grupo_2391" data-name="Grupo 2391" transform="translate(24.477 22.469)">
            <path id="Trazado_11119" data-name="Trazado 11119" d="M341.65,247.736l-5.2,4.256,52.782,26.594,5.2-4.256Zm22.939-18.774-9.287,7.6a2.972,2.972,0,0,0-.42,4.22l13.3,16.253a2.973,2.973,0,0,0,4.221.425l9.289-7.6a2.975,2.975,0,0,0,.42-4.223l-13.3-16.253a2.973,2.973,0,0,0-4.223-.423Zm-6.115,39.9-9.287,7.6a2.97,2.97,0,0,0-.425,4.223l13.3,16.253a2.967,2.967,0,0,0,4.223.423l9.286-7.6a2.971,2.971,0,0,0,.425-4.223l-13.3-16.255a2.97,2.97,0,0,0-4.223-.42Zm3.051-30.569,3.53-2.888a.636.636,0,0,1,1.014.1l9.5,11.612a.637.637,0,0,1-.1,1.014l-3.482,2.85a.666.666,0,0,1-1.06-.064l-9.505-11.609A.64.64,0,0,1,361.524,238.294Zm-6.115,39.9,3.528-2.888a.639.639,0,0,1,1.014.1l9.505,11.609a.639.639,0,0,1-.1,1.014l-3.482,2.853a.664.664,0,0,1-1.06-.066l-9.5-11.609A.636.636,0,0,1,355.409,278.193Z" transform="translate(-336.446 -228.271)" fill="#fff"/>
          </g>
        </g>
        <path id="Trazado_11120" data-name="Trazado 11120" d="M451.266,259.533s-8.7-38.244-43.333-38.244S374.824,259.13,392.9,250.852s20.442-47.775-7.941-42.739c-20.944,3.716-25.17,24.327-25.17,24.327" transform="translate(-359.789 -207.672)" fill="none" stroke="#b6be9d" stroke-miterlimit="10" stroke-width="0.5"/>
      </g>
    </g>
    <g id="Grupo_2412" data-name="Grupo 2412" transform="translate(49.244 125.137)">
      <g id="Grupo_2405" data-name="Grupo 2405" transform="translate(35.079)">
        <g id="Grupo_2395" data-name="Grupo 2395" transform="translate(71.686)">
          <path id="Trazado_11121" data-name="Trazado 11121" d="M452.738,357.581a4.572,4.572,0,0,0,4.571-4.57V313.647a53.614,53.614,0,0,1,107.227,0V353.01a4.572,4.572,0,0,0,9.144,0V313.647a62.758,62.758,0,0,0-125.516,0V353.01A4.573,4.573,0,0,0,452.738,357.581Z" transform="translate(-448.164 -250.889)" fill="#b6be9d"/>
        </g>
        <g id="Grupo_2400" data-name="Grupo 2400" transform="translate(0 83.582)">
          <g id="Grupo_2396" data-name="Grupo 2396" transform="translate(61.747)">
            <path id="Trazado_11122" data-name="Trazado 11122" d="M418.761,274.773h217.5l20.853,303.786h-217.5Z" transform="translate(-418.761 -274.773)" fill="#99fc9c"/>
          </g>
          <g id="Grupo_2397" data-name="Grupo 2397" transform="translate(0 0)">
            <path id="Trazado_11123" data-name="Trazado 11123" d="M505.528,274.773h37.13l20.853,303.786h-82.6Z" transform="translate(-480.911 -274.773)" fill="#318b30"/>
          </g>
          <g id="Grupo_2398" data-name="Grupo 2398" transform="translate(0 277.261)">
            <path id="Trazado_11124" data-name="Trazado 11124" d="M563.511,380.524,522.143,354l-41.232,26.525Z" transform="translate(-480.911 -353.999)" fill="#1c5c21"/>
          </g>
          <g id="Grupo_2399" data-name="Grupo 2399">
            <path id="Trazado_11125" data-name="Trazado 11125" d="M533.964,552.034V274.773H517.349L492.732,578.559Z" transform="translate(-492.732 -274.773)" fill="#1c5c21"/>
          </g>
        </g>
        <g id="Grupo_2403" data-name="Grupo 2403" transform="translate(105.86 90.153)">
          <g id="Grupo_2401" data-name="Grupo 2401" transform="translate(116.372)">
            <path id="Trazado_11126" data-name="Trazado 11126" d="M446.14,300.58A11.965,11.965,0,1,1,458.1,288.615,11.962,11.962,0,0,1,446.14,300.58Zm0-16.34a4.374,4.374,0,1,0,4.371,4.375A4.374,4.374,0,0,0,446.14,284.241Z" transform="translate(-434.175 -276.65)" fill="#283947"/>
          </g>
          <g id="Grupo_2402" data-name="Grupo 2402" transform="translate(0)">
            <path id="Trazado_11127" data-name="Trazado 11127" d="M479.392,300.58a11.965,11.965,0,1,1,11.965-11.965A11.962,11.962,0,0,1,479.392,300.58Zm0-16.34a4.374,4.374,0,1,0,4.374,4.375A4.374,4.374,0,0,0,479.392,284.241Z" transform="translate(-467.427 -276.65)" fill="#283947"/>
          </g>
        </g>
        <g id="Grupo_2404" data-name="Grupo 2404" transform="translate(113.251)">
          <path id="Trazado_11128" data-name="Trazado 11128" d="M440.861,357.581a4.572,4.572,0,0,0,4.57-4.57V313.647a53.614,53.614,0,0,1,107.227,0V353.01a4.572,4.572,0,0,0,9.144,0V313.647a62.758,62.758,0,0,0-125.516,0V353.01A4.573,4.573,0,0,0,440.861,357.581Z" transform="translate(-436.287 -250.889)" fill="#edece3"/>
        </g>
      </g>
      <g id="Grupo_2409" data-name="Grupo 2409" transform="matrix(0.999, -0.035, 0.035, 0.999, -1023.181, 187.036)">
        <g id="Grupo_2408" data-name="Grupo 2408" transform="translate(1284.24 -53.647)">
          <g id="Grupo_2406" data-name="Grupo 2406" transform="translate(0)">
            <path id="Trazado_11129" data-name="Trazado 11129" d="M530.435,272.2l-33.883,12.718-9.694,22.418L518.1,390.58l65.624-24.63-31.244-83.241ZM517.822,290.1a2.144,2.144,0,1,1,1.253-2.761A2.143,2.143,0,0,1,517.822,290.1Z" transform="translate(-486.858 -272.203)" fill="#fff"/>
            <path id="Trazado_11130" data-name="Trazado 11130" d="M503.393,288.984a7.416,7.416,0,1,0-9.547-4.339A7.419,7.419,0,0,0,503.393,288.984Zm-3.36-8.952a2.144,2.144,0,1,1-1.253,2.761A2.146,2.146,0,0,1,500.033,280.033Z" transform="translate(-470.577 -266.153)" fill="#283947"/>
          </g>
          <g id="Grupo_2407" data-name="Grupo 2407" transform="translate(16.482 31.013)">
            <path id="Trazado_11131" data-name="Trazado 11131" d="M521.13,283.455l6.264-2.39-3.16,58.867-6.264,2.39ZM493.507,294l11.185-4.269a2.967,2.967,0,0,1,3.86,1.729l7.468,19.573a2.969,2.969,0,0,1-1.725,3.867l-11.185,4.266a2.963,2.963,0,0,1-3.864-1.732l-7.468-19.57A2.959,2.959,0,0,1,493.507,294Zm37.565,14.5,11.185-4.27a2.965,2.965,0,0,1,3.864,1.729l7.468,19.573a2.962,2.962,0,0,1-1.729,3.864l-11.185,4.266a2.956,2.956,0,0,1-3.864-1.725l-7.471-19.573a2.967,2.967,0,0,1,1.732-3.863ZM503.1,295.973l-4.252,1.624a.631.631,0,0,0-.413.927l5.333,13.981a.639.639,0,0,0,.931.416l4.193-1.6a.663.663,0,0,0,.469-.948l-5.333-13.981A.638.638,0,0,0,503.1,295.973Zm37.561,14.5-4.249,1.62a.64.64,0,0,0-.413.931L541.336,327a.636.636,0,0,0,.927.413l4.2-1.6a.663.663,0,0,0,.469-.948L541.6,310.885A.639.639,0,0,0,540.664,310.469Z" transform="translate(-491.568 -281.065)" fill="#9bc199"/>
          </g>
        </g>
        <path id="Trazado_11132" data-name="Trazado 11132" d="M561.285,313.277s-9.554-37.936-44.084-37.145-32.154,38.492-14.317,29.824,19.293-48.109-8.9-42.436c-20.8,4.186-24.543,24.833-24.543,24.833" transform="translate(753.857 -348.943)" fill="none" stroke="#b6be9d" stroke-miterlimit="10" stroke-width="0.5"/>
      </g>
    </g>
  </g>
</svg>
