<svg id="logo_fondo_negro" xmlns="http://www.w3.org/2000/svg" xmlns:xlink="http://www.w3.org/1999/xlink" width="408.142" height="96.124" viewBox="0 0 408.142 96.124">
  <defs>
    <linearGradient id="linear-gradient" x1="0.937" y1="0.116" x2="0.048" y2="0.897" gradientUnits="objectBoundingBox">
      <stop offset="0" stop-color="#444242"/>
      <stop offset="1"/>
    </linearGradient>
    <linearGradient id="linear-gradient-2" y1="0.498" x2="1.021" y2="0.498" gradientUnits="objectBoundingBox">
      <stop offset="0.35" stop-color="#282828"/>
      <stop offset="0.53" stop-color="#252525"/>
      <stop offset="0.67" stop-color="#1b1b1b"/>
      <stop offset="0.8" stop-color="#0a0a0a"/>
      <stop offset="0.86"/>
    </linearGradient>
    <linearGradient id="linear-gradient-3" y1="0.5" x2="3.361" y2="0.5" gradientUnits="objectBoundingBox">
      <stop offset="0" stop-color="#0400e9"/>
      <stop offset="0.13" stop-color="#0800e5"/>
      <stop offset="0.26" stop-color="#1301d8"/>
      <stop offset="0.4" stop-color="#2601c2"/>
      <stop offset="0.55" stop-color="#4003a4"/>
      <stop offset="0.69" stop-color="#61047d"/>
      <stop offset="0.84" stop-color="#8a064e"/>
      <stop offset="0.99" stop-color="#ba0817"/>
      <stop offset="1" stop-color="#bf0811"/>
    </linearGradient>
    <linearGradient id="linear-gradient-4" x1="-0.834" y1="0.5" x2="1.694" y2="0.5" xlink:href="#linear-gradient-3"/>
    <linearGradient id="linear-gradient-5" x1="-3.234" y1="0.499" x2="1.009" y2="0.499" xlink:href="#linear-gradient-3"/>
    <linearGradient id="linear-gradient-6" x1="-5.031" y1="0.499" x2="-0.113" y2="0.499" xlink:href="#linear-gradient-3"/>
    <linearGradient id="linear-gradient-7" x1="1.399" y1="0.456" x2="-0.555" y2="0.573" gradientUnits="objectBoundingBox">
      <stop offset="0" stop-color="#444242"/>
      <stop offset="0.6" stop-color="#191818"/>
      <stop offset="1"/>
    </linearGradient>
    <linearGradient id="linear-gradient-8" x1="-0.27" y1="0.313" x2="1.479" y2="0.667" gradientUnits="objectBoundingBox">
      <stop offset="0" stop-color="#444242"/>
      <stop offset="0.22" stop-color="#3e3c3c"/>
      <stop offset="0.5" stop-color="#2d2c2c"/>
      <stop offset="0.83" stop-color="#111"/>
      <stop offset="1"/>
    </linearGradient>
  </defs>
  <circle id="Elipse_82" data-name="Elipse 82" cx="10.923" cy="10.923" r="10.923" transform="matrix(0.974, -0.227, 0.227, 0.974, 26.978, 57.921)" fill="#bf0811"/>
  <circle id="Elipse_83" data-name="Elipse 83" cx="10.923" cy="10.923" r="10.923" transform="matrix(0.974, -0.227, 0.227, 0.974, 60.226, 28.97)" fill="#0400e9"/>
  <circle id="Elipse_84" data-name="Elipse 84" cx="10.923" cy="10.923" r="10.923" transform="matrix(0.974, -0.227, 0.227, 0.974, 19.325, 15.282)" fill="url(#linear-gradient)"/>
  <path id="Trazado_10902" data-name="Trazado 10902" d="M36.5,18.094a10.988,10.988,0,0,1-1.31,8.286,11.156,11.156,0,1,1-3.521-15.049A10.988,10.988,0,0,1,36.5,18.094Zm0,0a10.923,10.923,0,0,0-4.913-6.747,10.707,10.707,0,1,0,3.39,14.885A10.923,10.923,0,0,0,36.5,18.094Z" transform="translate(6.593 2.899)" fill="url(#linear-gradient-2)"/>
  <path id="Trazado_10903" data-name="Trazado 10903" d="M115.217,70.113H87.755l-4.405,13H64.6L91.21,9.54h20.748L138.585,83.1H119.622ZM101.478,29.338,92.471,56.276H110.6Z" transform="translate(38.546 2.906)" fill="url(#linear-gradient-3)"/>
  <path id="Trazado_10904" data-name="Trazado 10904" d="M195.294,45.723c0-7.647-4.405-11.84-11.217-11.84s-11.217,4.192-11.217,11.84V77.475H155.043V45.723c0-7.647-4.405-11.84-11.217-11.84s-11.217,4.192-11.217,11.84V77.475h-17.9V19h17.915v7.336a20.633,20.633,0,0,1,17.08-7.959c8.81,0,15.934,3.881,19.913,10.906a23.515,23.515,0,0,1,19.651-10.906c14.46,0,23.794,9.219,23.794,24.94v34.16H195.294Z" transform="translate(70.494 8.53)" fill="url(#linear-gradient-4)"/>
  <path id="Trazado_10905" data-name="Trazado 10905" d="M209.816,78.424c-17.178,0-29.476-11.463-29.476-30.082S192.491,18.26,209.816,18.26c17.08,0,29.132,11.316,29.132,29.132a45.683,45.683,0,0,1-.311,5.24H198.091c.622,7.647,5.338,11.217,11.1,11.217a9.531,9.531,0,0,0,9.334-5.666h19.061C234.773,69.581,224.39,78.424,209.816,78.424ZM198.189,42.692h22.435c0-6.386-5.027-10.055-11-10.055s-10.382,3.5-11.43,10.006Z" transform="translate(112.337 8.466)" fill="url(#linear-gradient-5)"/>
  <path id="Trazado_10906" data-name="Trazado 10906" d="M246.908,78.418c-15.622,0-26.1-8.7-26.938-20.011h17.7c.426,4.094,4.094,6.812,9.007,6.812,4.618,0,7.025-2.1,7.025-4.716,0-9.432-31.851-2.62-31.851-24.1,0-9.956,8.483-18.128,23.794-18.128s23.483,8.384,24.563,19.913H253.72c-.524-3.979-3.57-6.55-8.6-6.55-4.192,0-6.55,1.638-6.55,4.5,0,9.334,31.654,2.718,31.965,24.563C270.6,70.721,261.58,78.418,246.908,78.418Z" transform="translate(137.604 8.472)" fill="url(#linear-gradient-6)"/>
  <path id="Trazado_10907" data-name="Trazado 10907" d="M76.8,26.978a6.829,6.829,0,0,1-7.254-2.489,37.5,37.5,0,0,0-14.28-10.1C48.721,11.553,32.64,8.114,32.64,8.114c-4.913-.77-4.045-6.01,1.343-6.108,0,0,15.884-.852,27.839,3.57,10.693,3.947,15.688,8.794,17.686,13.854C80.817,22.8,79.883,25.6,76.8,26.978Z" transform="translate(16.107 -1.939)" fill="#0400e9"/>
  <path id="Trazado_10908" data-name="Trazado 10908" d="M25.648,67.8a6.829,6.829,0,0,1,5.977-4.814A37.5,37.5,0,0,0,47.8,56.319C53.667,52.372,65.212,40.6,65.212,40.6c3.275-3.668,7.238-.2,4.438,4.389,0,0-7.762,13.887-17.915,21.649-9.088,6.878-15.8,8.5-21.141,7.484C27.04,73.35,25.173,71.139,25.648,67.8Z" transform="translate(13.665 21.728)" fill="#bf0811"/>
  <path id="Trazado_10909" data-name="Trazado 10909" d="M13.783,9.436a6.829,6.829,0,0,1,1.441,7.533,37.5,37.5,0,0,0-1.687,17.489c.753,7.025,5.781,22.762,5.781,22.762,1.719,4.585-3.275,6.55-5.961,1.867,0,0-8.614-13.379-10.71-25.972C.78,21.882,2.516,15.1,5.922,10.91,8.166,8.093,11.064,7.52,13.783,9.436Z" transform="translate(-1.439 2.126)" fill="url(#linear-gradient-7)"/>
  <path id="Trazado_10910" data-name="Trazado 10910" d="M13.956,9.435a6.8,6.8,0,0,1,1.638,6.96,36.485,36.485,0,0,0-1.719,7.369,37.156,37.156,0,0,0-.164,7.484,44.066,44.066,0,0,0,1.146,7.385c1.146,4.913,2.636,9.662,4.159,14.427l1.146,3.57a5.126,5.126,0,0,1,0,4.34,3.275,3.275,0,0,1-1.981,1.539,3.717,3.717,0,0,1-2.407-.147,6.55,6.55,0,0,1-3.16-2.882A87.528,87.528,0,0,1,5.784,45.9a56.479,56.479,0,0,1-3.8-14.738A34.733,34.733,0,0,1,3.066,16.149a15.639,15.639,0,0,1,4-6.337,5.535,5.535,0,0,1,3.373-1.49,5.519,5.519,0,0,1,3.521,1.114Zm0,0a5.5,5.5,0,0,0-3.521-1.081A5.486,5.486,0,0,0,7.16,9.877a15.147,15.147,0,0,0-3.75,6.4A33.685,33.685,0,0,0,3,31.018,56.758,56.758,0,0,0,7.307,45.3a102.89,102.89,0,0,0,6.927,13.264,4.733,4.733,0,0,0,2.243,2.162,1.638,1.638,0,0,0,2.145-.639,2.424,2.424,0,0,0,.262-1.31,7.418,7.418,0,0,0-.377-1.638L17.444,53.5c-1.343-4.913-2.587-9.727-3.537-14.738a44.427,44.427,0,0,1-.344-15.082,38.794,38.794,0,0,1,1.932-7.287A6.747,6.747,0,0,0,13.956,9.435Z" transform="translate(-1.612 2.127)" fill="url(#linear-gradient-8)"/>
</svg>
