<svg id="logo_blanco" data-name="logo blanco" xmlns="http://www.w3.org/2000/svg" width="216.731" height="51.092" viewBox="0 0 216.731 51.092">
  <circle id="Elipse_36" data-name="Elipse 36" cx="5.807" cy="5.807" r="5.807" transform="matrix(0.974, -0.227, 0.227, 0.974, 14.082, 30.805)" fill="#fff"/>
  <circle id="Elipse_37" data-name="Elipse 37" cx="5.807" cy="5.807" r="5.807" transform="matrix(0.974, -0.227, 0.227, 0.974, 31.752, 15.424)" fill="#fff"/>
  <circle id="Elipse_38" data-name="Elipse 38" cx="5.807" cy="5.807" r="5.807" transform="matrix(0.974, -0.227, 0.227, 0.974, 10.007, 8.146)" fill="#fff"/>
  <path id="Trazado_10632" data-name="Trazado 10632" d="M102.131,55.785H87.539L85.2,62.7H75.22L89.376,23.58h11.031l14.156,39.109H104.473Zm-7.3-21.67L90.047,48.436h9.638Z" transform="translate(-20.652 -16.963)" fill="#fff"/>
  <path id="Trazado_10633" data-name="Trazado 10633" d="M168.174,46.958c0-4.066-2.342-6.295-5.964-6.295s-5.964,2.229-5.964,6.295V63.84h-9.438V46.958c0-4.066-2.342-6.295-5.964-6.295s-5.964,2.229-5.964,6.295V63.84H125.33V32.75h9.525v3.9a10.97,10.97,0,0,1,9.081-4.231c4.684,0,8.471,2.063,10.587,5.8a12.5,12.5,0,0,1,10.448-5.8c7.688,0,12.65,4.9,12.65,13.26V63.84h-9.446Z" transform="translate(-27.135 -18.105)" fill="#fff"/>
  <path id="Trazado_10634" data-name="Trazado 10634" d="M206.671,64.247c-9.133,0-15.671-6.094-15.671-15.993s6.46-15.993,15.671-15.993c9.081,0,15.488,6.016,15.488,15.488a24.3,24.3,0,0,1-.165,2.786H200.4c.331,4.066,2.838,5.964,5.9,5.964a5.067,5.067,0,0,0,4.963-3.012h10.143C219.9,59.58,214.394,64.247,206.671,64.247Zm-6.181-19h11.928c0-3.4-2.673-5.346-5.851-5.346a5.894,5.894,0,0,0-6.1,5.363Z" transform="translate(-35.631 -18.086)" fill="#fff"/>
  <path id="Trazado_10635" data-name="Trazado 10635" d="M244.872,64.248c-8.306,0-13.878-4.623-14.322-10.639h9.411c.226,2.177,2.177,3.622,4.788,3.622,2.455,0,3.735-1.114,3.735-2.507,0-5.015-16.934-1.393-16.934-12.816,0-5.293,4.51-9.638,12.65-9.638s12.485,4.458,13.059,10.587h-8.724c-.279-2.116-1.9-3.483-4.571-3.483-2.229,0-3.483.871-3.483,2.394,0,4.963,16.829,1.445,16.995,13.059C257.5,60.2,252.707,64.248,244.872,64.248Z" transform="translate(-40.748 -18.087)" fill="#fff"/>
  <path id="Trazado_10636" data-name="Trazado 10636" d="M65.251,29.3a3.631,3.631,0,0,1-3.857-1.323A19.937,19.937,0,0,0,53.8,22.6c-3.465-1.5-12.058-3.335-12.058-3.335-2.612-.409-2.15-3.2.714-3.247,0,0,8.445-.453,14.8,1.9,5.685,2.1,8.332,4.675,9.385,7.374C67.358,27.072,66.871,28.569,65.251,29.3Z" transform="translate(-16.099 -15.98)" fill="#fff"/>
  <path id="Trazado_10637" data-name="Trazado 10637" d="M36.245,68.383a3.631,3.631,0,0,1,3.178-2.56,19.938,19.938,0,0,0,8.6-3.543c3.108-2.1,9.255-8.4,9.255-8.4,1.741-1.95,3.848-.1,2.359,2.333,0,0-4.127,7.383-9.525,11.51-4.815,3.683-8.41,4.545-11.249,4A2.841,2.841,0,0,1,36.245,68.383Z" transform="translate(-15.606 -20.777)" fill="#fff"/>
  <path id="Trazado_10638" data-name="Trazado 10638" d="M18.844,23a3.631,3.631,0,0,1,.766,4,19.937,19.937,0,0,0-.871,9.255c.4,3.735,3.073,12.1,3.073,12.1.914,2.438-1.741,3.483-3.169.993,0,0-4.58-7.113-5.694-13.808-.993-5.973-.07-9.577,1.741-11.806C15.858,22.248,17.39,21.935,18.844,23Z" transform="translate(-12.544 -16.806)" fill="#fff"/>
</svg>
