<svg id="formas_background_slide_3" data-name="formas background slide 3" xmlns="http://www.w3.org/2000/svg" xmlns:xlink="http://www.w3.org/1999/xlink" width="1919.979" height="963.047" viewBox="0 0 1919.979 963.047">
  <defs>
    <linearGradient id="linear-gradient" x1="0.5" y1="1.008" x2="0.5" y2="0.064" gradientUnits="objectBoundingBox">
      <stop offset="0" stop-color="#a434d4"/>
      <stop offset="0.404" stop-color="#a232d2"/>
      <stop offset="1" stop-color="#371995"/>
    </linearGradient>
    <clipPath id="clip-path">
      <rect id="Rectángulo_291" data-name="Rectángulo 291" width="1919.979" height="963.047" fill="url(#linear-gradient)"/>
    </clipPath>
    <linearGradient id="linear-gradient-2" x1="0.879" y1="0.24" x2="0.837" y2="1.165" gradientUnits="objectBoundingBox">
      <stop offset="0" stop-color="#bf0811"/>
      <stop offset="0.932" stop-color="#3302b2"/>
      <stop offset="1" stop-color="#0400e9"/>
      <stop offset="1" stop-color="#5a4dff"/>
    </linearGradient>
    <linearGradient id="linear-gradient-3" x1="-0.053" y1="-0.036" x2="0.696" y2="1.109" gradientUnits="objectBoundingBox">
      <stop offset="0" stop-color="#0400e9"/>
      <stop offset="1" stop-color="#bf0811"/>
    </linearGradient>
  </defs>
  <g id="Enmascarar_grupo_3" data-name="Enmascarar grupo 3" clip-path="url(#clip-path)">
    <path id="Trazado_1931" data-name="Trazado 1931" d="M-844.912,91.718c27.8,158.307,53.864,286.838,317.166,334.078s492.961,60.7,673.255,233.7,138.18,305.577,119.678,356.215-1168.966,15.116-1198.921-36.688S-844.912,91.718-844.912,91.718Z" transform="translate(848.142 16.072)" fill="url(#linear-gradient-2)"/>
    <path id="Trazado_1932" data-name="Trazado 1932" d="M-223.894,310.624c-153.716-58.807-458.022-23.505-609.875,158.769s-129.595,460.234-97.121,546.7S-183.4,951.679-146,838.545-223.894,310.624-223.894,310.624Z" transform="translate(2453.763 83.212)" fill="url(#linear-gradient-3)"/>
  </g>
</svg>
