<svg id="formas_background_slide_1" data-name="formas background slide 1" xmlns="http://www.w3.org/2000/svg" xmlns:xlink="http://www.w3.org/1999/xlink" width="1919.979" height="948.862" viewBox="0 0 1919.979 948.862">
  <defs>
    <linearGradient id="linear-gradient" x1="0.5" y1="1.008" x2="0.5" y2="0.064" gradientUnits="objectBoundingBox">
      <stop offset="0" stop-color="#a434d4"/>
      <stop offset="0.404" stop-color="#a232d2"/>
      <stop offset="1" stop-color="#371995"/>
    </linearGradient>
    <clipPath id="clip-path">
      <rect id="Rectángulo_291" data-name="Rectángulo 291" width="1919.979" height="948.862" fill="url(#linear-gradient)"/>
    </clipPath>
    <linearGradient id="linear-gradient-2" x1="0.158" y1="0.344" x2="0.837" y2="1.165" gradientUnits="objectBoundingBox">
      <stop offset="0" stop-color="#bf0811"/>
      <stop offset="1" stop-color="#0400e9"/>
      <stop offset="1" stop-color="#5a4dff"/>
    </linearGradient>
    <linearGradient id="linear-gradient-3" x1="0.255" y1="1.148" x2="0.866" y2="0.026" gradientUnits="objectBoundingBox">
      <stop offset="0" stop-color="#0400e9"/>
      <stop offset="1" stop-color="#bf0811"/>
    </linearGradient>
  </defs>
  <g id="Enmascarar_grupo_3" data-name="Enmascarar grupo 3" clip-path="url(#clip-path)">
    <path id="Trazado_1931" data-name="Trazado 1931" d="M-827.384,89.531C-799.581,245.506-791.6,374.3-528.3,420.842S-35.341,480.653,144.952,651.1s138.18,301.076,119.678,350.968S-904.336,1016.961-934.291,965.92-827.384,89.531-827.384,89.531Z" transform="translate(846.952 14.517)" fill="url(#linear-gradient-2)"/>
    <path id="Trazado_1932" data-name="Trazado 1932" d="M-895.87,300.034c105.591-34.975,314.625-13.98,418.936,94.427s89.021,273.722,66.714,325.146S-923.688,681.3-949.376,614.013-895.87,300.034-895.87,300.034Z" transform="translate(762.774 323.261)" opacity="0.28" fill="url(#linear-gradient-3)" style="mix-blend-mode: multiply;isolation: isolate"/>
  </g>
</svg>
