<svg id="img_institucional_2" data-name="img institucional 2" xmlns="http://www.w3.org/2000/svg" xmlns:xlink="http://www.w3.org/1999/xlink" width="498.602" height="156.403" viewBox="0 0 498.602 156.403">
  <defs>
    <linearGradient id="linear-gradient" y1="0.5" x2="3.361" y2="0.5" gradientUnits="objectBoundingBox">
      <stop offset="0" stop-color="#0400e9"/>
      <stop offset="0.126" stop-color="#0700e4"/>
      <stop offset="0.262" stop-color="#1200d7"/>
      <stop offset="0.402" stop-color="#2501c2"/>
      <stop offset="0.546" stop-color="#3f02a4"/>
      <stop offset="0.691" stop-color="#61037d"/>
      <stop offset="0.839" stop-color="#8a054d"/>
      <stop offset="0.986" stop-color="#b90716"/>
      <stop offset="1" stop-color="#bf0811"/>
    </linearGradient>
    <linearGradient id="linear-gradient-2" x1="-0.834" y1="0.5" x2="1.694" y2="0.5" xlink:href="#linear-gradient"/>
    <linearGradient id="linear-gradient-3" x1="-3.228" y1="0.5" x2="1.009" y2="0.5" xlink:href="#linear-gradient"/>
    <linearGradient id="linear-gradient-4" x1="-5.027" y1="0.5" x2="-0.113" y2="0.5" xlink:href="#linear-gradient"/>
  </defs>
  <g id="Grupo_2414" data-name="Grupo 2414">
    <circle id="Elipse_94" data-name="Elipse 94" cx="12.265" cy="12.265" r="12.265" transform="translate(32.29 61.948)" fill="#bf0811"/>
    <circle id="Elipse_95" data-name="Elipse 95" cx="12.265" cy="12.265" r="12.265" transform="translate(69.606 29.455)" fill="#0400e9"/>
    <circle id="Elipse_96" data-name="Elipse 96" cx="12.265" cy="12.265" r="12.265" transform="translate(23.701 14.085)"/>
    <g id="Grupo_2413" data-name="Grupo 2413" transform="translate(115.331 13.97)">
      <path id="Trazado_11133" data-name="Trazado 11133" d="M249.868,322.973H219.043l-4.94,14.588h-21.06l29.881-82.589h23.3l29.885,82.589h-21.3Zm-15.415-45.766-10.114,30.237h20.352Z" transform="translate(-193.043 -254.973)" fill="url(#linear-gradient)"/>
      <path id="Trazado_11134" data-name="Trazado 11134" d="M373.558,301.55c0-8.589-4.941-13.3-12.585-13.3s-12.589,4.706-12.589,13.3V337.2h-20V301.55c0-8.589-4.941-13.3-12.585-13.3s-12.589,4.706-12.589,13.3V337.2H283.089V271.55h20.117v8.235c3.881-5.3,10.589-8.943,19.174-8.943,9.884,0,17.884,4.354,22.355,12.237a26.4,26.4,0,0,1,22.118-12.237c16.233,0,26.707,10.354,26.707,28V337.2h-20Z" transform="translate(-190.971 -254.608)" fill="url(#linear-gradient-2)"/>
      <path id="Trazado_11135" data-name="Trazado 11135" d="M434.137,338.143c-19.293,0-33.177-12.94-33.177-33.764s13.648-33.765,33.177-33.765c19.177,0,32.707,12.707,32.707,32.707a51.327,51.327,0,0,1-.352,5.883H420.96c.707,8.586,6,12.586,12.469,12.586,5.648,0,8.827-2.821,10.475-6.352h21.411C462.137,328.262,450.492,338.143,434.137,338.143Zm-13.059-40.118h25.177c0-7.175-5.648-11.294-12.352-11.294C427.315,286.73,422.256,290.73,421.078,298.024Z" transform="translate(-188.259 -254.613)" fill="url(#linear-gradient-3)"/>
      <path id="Trazado_11136" data-name="Trazado 11136" d="M502.5,338.143c-17.533,0-29.3-9.765-30.237-22.47h19.882c.47,4.587,4.588,7.647,10.118,7.647,5.177,0,7.881-2.352,7.881-5.3,0-10.586-35.762-2.94-35.762-27.059,0-11.175,9.529-20.353,26.7-20.353,16.944,0,26.355,9.413,27.648,22.353H510.143c-.588-4.471-4-7.411-9.648-7.411-4.7,0-7.292,1.881-7.292,5.059,0,10.47,35.529,3.058,35.884,27.529C529.087,329.554,518.969,338.143,502.5,338.143Z" transform="translate(-186.619 -254.613)" fill="url(#linear-gradient-4)"/>
    </g>
    <path id="Trazado_11137" data-name="Trazado 11137" d="M183.012,269.428c-2.257.814-5.591.177-8.149-2.787-4.31-4.993-9.208-8.378-16.03-11.357-7.265-3.173-25.414-7.04-25.414-7.04-5.427-.873-4.54-6.751,1.506-6.851,0,0,17.838-.963,31.279,4,12,4.433,17.6,9.881,19.827,15.563C187.515,264.738,186.469,267.885,183.012,269.428Z" transform="translate(-79.167 -241.318)" fill="#0400e9"/>
    <path id="Trazado_11138" data-name="Trazado 11138" d="M123,340.3c.517-2.343,2.839-4.82,6.711-5.4,6.523-.974,12-3.3,18.167-7.476,6.566-4.444,19.534-17.715,19.534-17.715,3.639-4.121,8.132-.228,4.985,4.935,0,0-8.721,15.591-20.1,24.3-10.158,7.77-17.757,9.592-23.751,8.439C124.562,346.611,122.46,344.044,123,340.3Z" transform="translate(-79.326 -239.784)" fill="#bf0811"/>
    <path id="Trazado_11139" data-name="Trazado 11139" d="M93.7,254.112c1.826,1.556,2.925,4.768,1.619,8.459-2.2,6.218-2.711,12.151-1.917,19.552.846,7.882,6.485,25.561,6.485,25.561,1.932,5.146-3.612,7.289-6.7,2.088,0,0-9.679-15.014-12.029-29.15-2.1-12.616-.143-20.182,3.687-24.934C87.4,252.527,90.649,251.874,93.7,254.112Z" transform="translate(-80.306 -241.054)" fill="#211915"/>
  </g>
  <g id="Grupo_2416" data-name="Grupo 2416" transform="translate(357.323 105.615)">
    <g id="Grupo_2415" data-name="Grupo 2415" transform="translate(0 0)">
      <path id="Trazado_11140" data-name="Trazado 11140" d="M434.063,391.342q-4.469,0-4.47-2.56,0-1.937,2.508-5.594,4.261-6.3,6.978-10.69,9.072-14.584,9.07-20.282A4.9,4.9,0,0,0,447,348.9a4.273,4.273,0,0,0-3.239-1.254A8.564,8.564,0,0,0,439,349.289a11.772,11.772,0,0,0-1.047.916,13.621,13.621,0,0,0-2.562,3.71,11.346,11.346,0,0,0-1.2,4.731,5.052,5.052,0,0,0,1.1,3.371,2.823,2.823,0,0,0,2.168.81,8.22,8.22,0,0,0,1.333-.131.808.808,0,0,1,.733.5,1.013,1.013,0,0,1,.051.313.808.808,0,0,1-.523.734,7.482,7.482,0,0,1-1.595.182q-3.4,0-4.547-3.555a8.249,8.249,0,0,1-.339-2.3,14.624,14.624,0,0,1,1.331-5.829,18.9,18.9,0,0,1,1.751-3.083,17.021,17.021,0,0,1,2.588-2.746,11.441,11.441,0,0,1,3.685-1.88,15.3,15.3,0,0,1,4.716-.446,8.763,8.763,0,0,1,5.739,1.937,5.912,5.912,0,0,1,.916,1.1,8.258,8.258,0,0,1,1.385,4.965q0,5.856-6.927,17.93-2.483,4.258-6.273,10.14c-2.266,3.606-3.884,5.455-3.884,5.542-.88,1.455.731,1.935,2.054,1.935.593,0,.54-.088,4.236-.262.94-.037,1.654-.053,2.141-.053a23.1,23.1,0,0,1,7.581,1.046.781.781,0,0,1,.418.68.806.806,0,0,1-.549.785l-.235.026-.914-.182a19.375,19.375,0,0,0-3.5-.287,53.479,53.479,0,0,0-7.737.73A52.078,52.078,0,0,1,434.063,391.342Z" transform="translate(-429.593 -344.558)"/>
      <path id="Trazado_11141" data-name="Trazado 11141" d="M460.243,395l-.454-.1c-1.839-.393-4.534-.765-6.77-4a15.193,15.193,0,0,1-2.295-6.633,27.417,27.417,0,0,1,.485-9.2,44.976,44.976,0,0,1,6.116-14.318,18.381,18.381,0,0,1,2.819-3.686,8.657,8.657,0,0,1,1.346-1.143,6.089,6.089,0,0,1,3.8-1.383s4.688-.227,4.914,5.018a24.618,24.618,0,0,1-.794,5.531,30.917,30.917,0,0,1-2.11,6.12.793.793,0,0,1-.871.316.893.893,0,0,1-.684-.547.685.685,0,0,1-.025-.357l.473-1.154q.516-1.244,1.188-3.332.35-1.177.458-1.683l.031-.018-.01-.076a14.8,14.8,0,0,0,.4-4.329q-.178-1.166-.68-1.275a1.59,1.59,0,0,0-.95.337,5.141,5.141,0,0,0-1,.8q-2.532,2.467-5.444,8.592a37.434,37.434,0,0,0-2.729,7.968,21.848,21.848,0,0,0-.041,10.172,12.146,12.146,0,0,0,.969,2.39,11.012,11.012,0,0,0,.666.993,3.972,3.972,0,0,0,4.433,1.675q4.361-1.177,7.958-9.21a45.8,45.8,0,0,0,2.782-8.56,35.776,35.776,0,0,0,.7-11.158,13.754,13.754,0,0,0-1.588-5.255,3.534,3.534,0,0,0-2.142-1.709l-1.153-.121a.673.673,0,0,1-.45-.473.768.768,0,0,1-.014-.4q.175-.818,1.806-.469l.456.1a4.481,4.481,0,0,1,2.572,1.8,11.108,11.108,0,0,1,1.507,3.28,25.688,25.688,0,0,1,.719,7.2,42.449,42.449,0,0,1-.93,7.65,54.971,54.971,0,0,1-2.874,9.117Q469.712,390.7,465.8,393.5A6.8,6.8,0,0,1,460.243,395Z" transform="translate(-429.111 -344.336)"/>
      <path id="Trazado_11142" data-name="Trazado 11142" d="M497.754,393.242a2.623,2.623,0,0,1-1.79-.722,5.259,5.259,0,0,1-1.011-1.358,12.207,12.207,0,0,1-1.272-3.87,21.063,21.063,0,0,1-.4-4.447q0-2.368.2-6.093a25.248,25.248,0,0,1-4.881,9.877,8.665,8.665,0,0,1-1.53,1.212,4.469,4.469,0,0,1-2.224.664,4.071,4.071,0,0,1-2.2-.722,7.644,7.644,0,0,1-2.31-3.09,12.745,12.745,0,0,1-.9-4.909,16.008,16.008,0,0,1,2.167-8.144,16.742,16.742,0,0,1,5.371-6.123,10.518,10.518,0,0,1,6.152-2.282,6.452,6.452,0,0,1,1.385.145A2.461,2.461,0,0,1,497,361.647a3.4,3.4,0,0,1,1.674.432,1.608,1.608,0,0,1,.693.636q.348.433.348,4.1,0,6.585-.375,12.3-.347,3.466-.347,6.238,0,3.235.752,3.234.718,0,2.179-3.088t3.741-9.012q1.326-3.379,2.137-5.285.374-.606.808-.607c.307,0,.461.193.461.577a37.214,37.214,0,0,1-1.329,5.112,66.143,66.143,0,0,1-4.013,10.629Q500.582,393.243,497.754,393.242Zm-9.443-9.588q1.212,0,3.582-6.441.749-1.935,1.819-5.458.173-2.108.173-3.524,0-3-.925-3a2.887,2.887,0,0,0-1.443.808,15.632,15.632,0,0,0-3.7,6.96,22.769,22.769,0,0,0-.953,6.123,7.416,7.416,0,0,0,1.04,4.332A.582.582,0,0,0,488.31,383.654Z" transform="translate(-428.446 -344.165)"/>
      <path id="Trazado_11143" data-name="Trazado 11143" d="M521.44,382.035a3.118,3.118,0,0,1-2.515-1.186,3.175,3.175,0,0,1-.693-1.385,19.076,19.076,0,0,1-.288-3.842q0-4.36.78-11.782a111.979,111.979,0,0,1-7.018,12.59,3.8,3.8,0,0,1-.924.983c0,.039-.193.1-.577.173a3.648,3.648,0,0,1-.838.087,4.168,4.168,0,0,1-2.571-.78,2.91,2.91,0,0,1-.952-1.5,5.668,5.668,0,0,1-.145-1.705,85.7,85.7,0,0,1,1.04-12.187,3.481,3.481,0,0,1,.9-1.849,2.241,2.241,0,0,1,3.753.405,13.482,13.482,0,0,1,.636,5.053,81.53,81.53,0,0,1-.491,8.578q2.658-5.372,5.054-9.5a21.68,21.68,0,0,1,2.832-4.13,2.931,2.931,0,0,1,1.962-.636,2.523,2.523,0,0,1,2.137,1.04,3.435,3.435,0,0,1,.607,2.02q0,.723-.432,5.834-.262,3.408-.261,5.487,0,4.361,1.069,4.36,1.731,0,3.552-7.305.982-3.87,1.53-7.048c.117-.443.288-.663.521-.663a.616.616,0,0,1,.607.374.419.419,0,0,1,.029.173l-.116.752q-1.966,11.377-3.842,14.266a7.926,7.926,0,0,1-2.454,2.384A5.468,5.468,0,0,1,521.44,382.035Zm.345-26.137q-1.53,0-5.14-2.6-4.275-3-6.354-3-1.386,0-1.819,1.646-.117.635-.2,1.645c-.116.27-.27.4-.462.4q-.433,0-.491-.865a10.639,10.639,0,0,1,.579-3.148,2.594,2.594,0,0,1,2.4-1.877q1.762,0,5.257,2.743a16.2,16.2,0,0,0,4.477,2.6,6.154,6.154,0,0,0,1.646.259,1.574,1.574,0,0,0,1.588-1.242,9.98,9.98,0,0,0,.259-2.8c.136-.387.327-.577.579-.577q.345,0,.4,1.27-.058,4.1-1.705,5.228A1.933,1.933,0,0,1,521.785,355.9Z" transform="translate(-427.842 -344.476)"/>
      <path id="Trazado_11144" data-name="Trazado 11144" d="M534.957,382.574a6.736,6.736,0,0,1-4.794-2.254,12.61,12.61,0,0,1-3.234-8.923,19.658,19.658,0,0,1,1.935-8.232,5.014,5.014,0,0,1,.634-1.038,2.684,2.684,0,0,1,1.994-1.1,2.115,2.115,0,0,1,1.56.782,9.691,9.691,0,0,1,.865-3.237q1.413-2.8,3.783-2.8a4.125,4.125,0,0,1,2.714,1.156,8.66,8.66,0,0,1,1.646,2.28q1.475,2.946,1.474,8.722l.057-.029a15.736,15.736,0,0,0,4.939-.838,8.925,8.925,0,0,0,2.945-1.7A2.135,2.135,0,0,0,552,364.7l.086-.086c.173,0,.259.048.259.145a3.313,3.313,0,0,1-.836,1.5,11.036,11.036,0,0,1-4.823,3.118,17.381,17.381,0,0,1-3.234.752,30.056,30.056,0,0,1-1.56,6.325,12.439,12.439,0,0,1-2.541,4.072A6.027,6.027,0,0,1,534.957,382.574Zm1.444-3.5q1.647,0,2.975-2.28a15.531,15.531,0,0,0,1.53-4.853c.154-1,.23-1.578.23-1.732a10.873,10.873,0,0,1-2.107-.288,9.579,9.579,0,0,1-1.733-.55,8.532,8.532,0,0,1-2.426-1.587,6.744,6.744,0,0,1-.983-1.329,3.328,3.328,0,0,1-.577-1.329,2.58,2.58,0,0,0-.2.549,20.332,20.332,0,0,0-.894,5.746,11.533,11.533,0,0,0,1.183,5.43Q534.639,379.079,536.4,379.078Zm4.881-11.378.03-.058v-.837q0-4.765-1.445-6.672a1.715,1.715,0,0,0-3.032.232,3.549,3.549,0,0,0-.406,1.849,5.072,5.072,0,0,0,3.236,5A6.068,6.068,0,0,0,541.282,367.7Z" transform="translate(-427.353 -344.3)"/>
      <path id="Trazado_11145" data-name="Trazado 11145" d="M552.694,391.066a5.482,5.482,0,0,1-3.9-1.494,4.747,4.747,0,0,1-1.218-3.263q0-2.408,2.5-5.427a26.165,26.165,0,0,1,5.549-4.667,25.769,25.769,0,0,0-1.921-4.908q-2.136-4.515-3.323-7.564a22.078,22.078,0,0,1-1.77-7.5,6.1,6.1,0,0,1,2.959-5.7,6.5,6.5,0,0,1,3.142-.792,6.76,6.76,0,0,1,4.3,1.463,3.964,3.964,0,0,1,1.523,3.019q0,2.684-3.353,5.7a10.668,10.668,0,0,1-.916.731q.519,1.924,2.2,7.35a51.912,51.912,0,0,1,1.4,5.367,16.433,16.433,0,0,0,1.952-2.1A33.815,33.815,0,0,0,567,360.938q.278-.519.64-.519c.307,0,.48.214.521.64a36.609,36.609,0,0,1-7.106,13.753c0,.019-.266.3-.794.853a30.9,30.9,0,0,1,.245,3.722q0,6.586-3.417,9.88A6.691,6.691,0,0,1,552.694,391.066Zm-.487-3.629A3.391,3.391,0,0,0,554.8,385.7a9.285,9.285,0,0,0,1.372-5.122,15.332,15.332,0,0,0-.062-1.588,4.356,4.356,0,0,0-.883.64,19.425,19.425,0,0,0-2.654,2.683,6.437,6.437,0,0,0-1.707,3.659,1.32,1.32,0,0,0,.976,1.4A1.654,1.654,0,0,0,552.207,387.438Zm3.782-28.543q2.622-2.288,2.621-4.148a1.566,1.566,0,0,0-.792-1.464,1.375,1.375,0,0,0-.611-.152,1.612,1.612,0,0,0-1.4,1.007,3.749,3.749,0,0,0-.364,1.738A10,10,0,0,0,555.989,358.895Z" transform="translate(-426.878 -344.438)"/>
    </g>
  </g>
</svg>
