<svg id="ayudas_economicas_icon" data-name="ayudas economicas icon" xmlns="http://www.w3.org/2000/svg" width="106.662" height="114.564" viewBox="0 0 106.662 114.564">
  <circle id="Elipse_65" data-name="Elipse 65" cx="35.5" cy="35.5" r="35.5" transform="translate(0 27.665)" fill="#bf0811"/>
  <g id="Grupo_2033" data-name="Grupo 2033" transform="translate(446.594 86.936)">
    <path id="Trazado_10686" data-name="Trazado 10686" d="M-342.113-22.385h-38.469v-2.644a74.014,74.014,0,0,0,7.636.426c11.481,0,19.962-3.156,25.278-9.426,9.946-11.732,4.843-29.736,4.621-30.5a2.181,2.181,0,0,0-1.636-1.521c-14.5-3.108-25.32-1.21-32.169,5.638a23.294,23.294,0,0,0-3.73,4.914V-67.522a2.165,2.165,0,0,0-.085-.573c.829-7.372-.631-12.711-4.35-15.864-5.657-4.8-14.192-2.38-14.553-2.274a2.18,2.18,0,0,0-1.521,1.637c-1.46,6.811-.514,11.95,2.811,15.276,3.151,3.151,7.712,3.849,11.139,3.849.811,0,1.547-.041,2.2-.1v18.483a16.406,16.406,0,0,0-3.435-4.05c-8.24-6.985-20.8-3.426-21.329-3.272a2.181,2.181,0,0,0-1.521,1.637c-2.16,10.078-.81,17.632,4.012,22.455,4.573,4.573,11.242,5.594,16.291,5.594a38.89,38.89,0,0,0,5.981-.465v2.8h-38.469a2.181,2.181,0,0,0-2.18,2.181V25.447a2.181,2.181,0,0,0,2.18,2.181h81.3a2.181,2.181,0,0,0,2.181-2.181V-20.2A2.181,2.181,0,0,0-342.113-22.385Zm-31.655-34.939c5.537-5.537,14.563-7.125,26.841-4.73.9,4.022,3.013,16.852-4.069,25.2-5.043,5.949-13.821,8.544-26.121,7.743l4.01-4.346c4.712-.6,9.75-1.173,10.928-1.211a2.23,2.23,0,0,0,.382.033,2.181,2.181,0,0,0,2.18-2.181,2.2,2.2,0,0,0-.745-1.646c-.737-.649-.954-.835-8.158.035L-356.635-51.3a2.182,2.182,0,0,0-.124-3.082,2.181,2.181,0,0,0-3.081.124l-5.571,6.036-.947-9.3a2.18,2.18,0,0,0-2.391-1.948,2.18,2.18,0,0,0-1.948,2.391l1.339,13.134L-380.193-32.2C-380.788-38.569-380.755-50.337-373.768-57.325Zm9.819,20.869a2.165,2.165,0,0,0,.385.924A2.083,2.083,0,0,1-363.948-36.456Zm-33.139-45.861c2.12-.365,6.433-.716,9.263,1.7,1.813,1.546,2.8,4.072,2.987,7.515l-6.2-6.2a2.181,2.181,0,0,0-3.085,0,2.181,2.181,0,0,0,0,3.085l6.366,6.366c-2.5-.068-5.505-.617-7.444-2.555C-397.211-74.422-397.846-77.752-397.088-82.317ZM-404.131-33.4c-3.512-3.512-4.553-9.264-3.1-17.111,3.039-.615,10.918-1.648,16.047,2.715,3.564,3.031,5.26,8.193,5.07,15.376l-1.678-1.679-1.142-8.668a2.181,2.181,0,0,0-2.447-1.878A2.182,2.182,0,0,0-393.26-42.2l.4,3.031-4.859-4.859a2.181,2.181,0,0,0-3.085,0,2.183,2.183,0,0,0,0,3.085l.663.663-2.04.356a2.181,2.181,0,0,0-1.773,2.524,2.182,2.182,0,0,0,2.146,1.806,2.194,2.194,0,0,0,.379-.032l5.06-.884,7.365,7.365C-393.354-28.893-400.034-29.3-404.131-33.4Zm-3.824,56.666A17.842,17.842,0,0,0-421.232,9.958V-4.683a17.835,17.835,0,0,0,13.285-13.34h50.04A18.055,18.055,0,0,0-344.293-4.6V9.874A18.061,18.061,0,0,0-357.9,23.266Zm63.662-41.289v8.937a13.694,13.694,0,0,1-9.107-8.937Zm-76.939,0h8.781a13.5,13.5,0,0,1-8.781,8.829Zm0,41.289v-8.8a13.507,13.507,0,0,1,8.77,8.8Zm76.939,0h-9.1a13.7,13.7,0,0,1,9.1-8.905Z"/>
    <path id="Trazado_10687" data-name="Trazado 10687" d="M-374.846,8.128a16.434,16.434,0,0,0-16.415,16.415,16.434,16.434,0,0,0,16.415,16.415,16.433,16.433,0,0,0,16.414-16.415A16.433,16.433,0,0,0-374.846,8.128Zm0,28.468A12.067,12.067,0,0,1-386.9,24.543a12.067,12.067,0,0,1,12.054-12.053,12.067,12.067,0,0,1,12.053,12.053A12.067,12.067,0,0,1-374.846,36.6Z" transform="translate(-7.917 -21.921)"/>
    <path id="Trazado_10688" data-name="Trazado 10688" d="M-370.634,25.615V21.948a2.718,2.718,0,0,1,1.295.438,4.33,4.33,0,0,1,1.119,1.129l1.493-1.567a6.326,6.326,0,0,0-1.783-1.4,5.84,5.84,0,0,0-2.124-.6v-1.28h-1.17v1.28a4.77,4.77,0,0,0-3.023,1.083,3.324,3.324,0,0,0-1.1,2.6,3.282,3.282,0,0,0,1,2.5,6.425,6.425,0,0,0,3.12,1.4V31.57a2.832,2.832,0,0,1-1.341-.5,5.867,5.867,0,0,1-1.3-1.29l-1.53,1.512a5.843,5.843,0,0,0,1.815,1.645,5.884,5.884,0,0,0,2.36.715v1.87h1.17v-1.87a4.752,4.752,0,0,0,3.156-1.083,3.5,3.5,0,0,0,1.166-2.751,3.537,3.537,0,0,0-1-2.644A7.258,7.258,0,0,0-370.634,25.615Zm-1.17-.4a3.412,3.412,0,0,1-1.549-.618,1.408,1.408,0,0,1-.47-1.125,1.406,1.406,0,0,1,.516-1.161,2.553,2.553,0,0,1,1.5-.461Zm2.718,5.985a2.4,2.4,0,0,1-1.548.429V27.911a3.263,3.263,0,0,1,1.59.71,1.748,1.748,0,0,1,.484,1.317A1.537,1.537,0,0,1-369.086,31.205Z" transform="translate(-11.441 -24.351)"/>
  </g>
</svg>
