<svg id="beneficios_ames_icon" data-name="beneficios ames icon" xmlns="http://www.w3.org/2000/svg" width="134.5" height="100.32" viewBox="0 0 134.5 100.32">
  <g id="Grupo_2421" data-name="Grupo 2421" transform="translate(-1355 -1548)">
    <circle id="Elipse_71" data-name="Elipse 71" cx="35.5" cy="35.5" r="35.5" transform="translate(1355 1560.896)" fill="#0400e9"/>
    <g id="Grupo_2053" data-name="Grupo 2053" transform="translate(1368 1548)">
      <path id="Trazado_10704" data-name="Trazado 10704" d="M-176.115,922.356a1.681,1.681,0,0,0,1.253-1.627,1.983,1.983,0,0,1,1.982-1.983,1.983,1.983,0,0,1,1.983,1.983,5.651,5.651,0,0,1-4.212,5.464,2.025,2.025,0,0,1-.5.064,1.983,1.983,0,0,1-1.917-1.479A1.983,1.983,0,0,1-176.115,922.356Z" transform="translate(292.396 -838.328)"/>
      <path id="Trazado_10705" data-name="Trazado 10705" d="M-169.327,914.408c.093,0,.185.008.278.008h8.225a1.983,1.983,0,0,1,1.982,1.983,1.983,1.983,0,0,1-1.982,1.983h-8.225c-.152,0-.3,0-.455-.012a5.146,5.146,0,0,0-3.353.967,2.923,2.923,0,0,0-.772,2.228,2.727,2.727,0,0,0,.718,2.108,4.569,4.569,0,0,0,3.235.79c.262-.019.525-.033.788-.033h25a5.7,5.7,0,0,0,3.662-1.332l13.693-13.7c.035-.036.072-.069.11-.1a9.669,9.669,0,0,1,6.3-2.336h2.077v-13.9h-12.721a10.661,10.661,0,0,0-7.586,3.141l-11.486,11.487c-.046.047-.1.09-.146.133a5.878,5.878,0,0,0-2.066,3.458,2.764,2.764,0,0,0,.972,2.105,2.95,2.95,0,0,0,2.212,1.027,6.2,6.2,0,0,0,3.688-1.935c.02-.022.041-.043.062-.065l8.7-8.7a1.984,1.984,0,0,1,2.8,0,1.984,1.984,0,0,1,0,2.8l-8.673,8.673c-.429.46-3.049,3.11-6.478,3.188h-.15a6.967,6.967,0,0,1-4.97-2.188,6.675,6.675,0,0,1-2.128-5.108c.164-3.3,2.834-5.751,3.429-6.258l11.425-11.424a14.6,14.6,0,0,1,10.39-4.3h12.892A5.652,5.652,0,0,1-112.4,884.8h8.211a5.655,5.655,0,0,1,5.647,5.648v10.237a1.983,1.983,0,0,1-1.983,1.983,1.983,1.983,0,0,1-1.982-1.983V890.451a1.684,1.684,0,0,0-1.682-1.682H-112.4a1.685,1.685,0,0,0-1.683,1.682v20.077a1.684,1.684,0,0,0,1.683,1.682h2.312a1.983,1.983,0,0,1,1.982,1.983,1.983,1.983,0,0,1-1.982,1.983H-112.4a5.65,5.65,0,0,1-5.627-5.247h-2.1a5.7,5.7,0,0,0-3.662,1.333l-13.693,13.7c-.036.035-.072.069-.11.1a9.675,9.675,0,0,1-6.3,2.335h-25c-.166,0-.332.01-.49.021-.211.017-.48.03-.79.03a8.026,8.026,0,0,1-5.436-1.864,6.551,6.551,0,0,1-1.989-5.018,6.774,6.774,0,0,1,2-5.094A8.881,8.881,0,0,1-169.327,914.408Z" transform="translate(220.038 -828.126)"/>
      <path id="Trazado_10706" data-name="Trazado 10706" d="M-114.934,829.55a1.983,1.983,0,0,1,1.983,1.983V841.77a1.684,1.684,0,0,0,1.682,1.682h8.21a1.684,1.684,0,0,0,1.683-1.682V821.694a1.685,1.685,0,0,0-1.683-1.683h-2.312a1.983,1.983,0,0,1-1.982-1.983,1.983,1.983,0,0,1,1.982-1.983h2.312a5.652,5.652,0,0,1,5.628,5.247h2.1a5.7,5.7,0,0,0,3.662-1.332l13.694-13.7c.035-.036.072-.07.11-.1a9.668,9.668,0,0,1,6.3-2.335h25c.164,0,.328-.009.492-.022a8.459,8.459,0,0,1,6.227,1.835,6.551,6.551,0,0,1,1.988,5.017,6.775,6.775,0,0,1-2,5.093,8.887,8.887,0,0,1-6.26,2.063c-.1,0-.193-.008-.29-.008H-54.63a1.983,1.983,0,0,1-1.982-1.983,1.983,1.983,0,0,1,1.982-1.983h8.225c.148,0,.3.006.455.012a5.152,5.152,0,0,0,3.354-.967,2.925,2.925,0,0,0,.772-2.228,2.725,2.725,0,0,0-.718-2.107,4.547,4.547,0,0,0-3.229-.791c-.264.02-.529.034-.794.034h-25a5.7,5.7,0,0,0-3.662,1.332l-13.694,13.7c-.036.036-.072.069-.11.1a9.664,9.664,0,0,1-6.3,2.336H-97.41v13.9h12.72a10.656,10.656,0,0,0,7.586-3.143l11.486-11.486c.046-.046.1-.09.146-.132a5.885,5.885,0,0,0,2.066-3.459,2.763,2.763,0,0,0-.973-2.1,3,3,0,0,0-2.212-1.027,6.2,6.2,0,0,0-3.688,1.935c-.02.022-.041.043-.062.065l-8.7,8.7a1.983,1.983,0,0,1-2.8,0,1.983,1.983,0,0,1,0-2.8l8.673-8.673c.429-.46,3.05-3.11,6.478-3.188a7.025,7.025,0,0,1,5.119,2.187,6.675,6.675,0,0,1,2.129,5.108c-.164,3.3-2.835,5.75-3.43,6.258L-74.3,838.82a14.6,14.6,0,0,1-10.39,4.3H-97.581a5.654,5.654,0,0,1-5.477,4.295h-8.21a5.655,5.655,0,0,1-5.647-5.648V831.533A1.983,1.983,0,0,1-114.934,829.55Z" transform="translate(116.916 -803.774)"/>
      <path id="Trazado_10707" data-name="Trazado 10707" d="M-8.248,825.39A1.683,1.683,0,0,0-9.5,827.018,1.983,1.983,0,0,1-11.484,829a1.983,1.983,0,0,1-1.982-1.983,5.651,5.651,0,0,1,4.212-5.464,1.985,1.985,0,0,1,2.421,1.414A1.983,1.983,0,0,1-8.248,825.39Z" transform="translate(13.466 -809.099)"/>
      <path id="Trazado_10708" data-name="Trazado 10708" d="M-81.177,871.259c-1.678,5.772-7.423,11.186-17.077,16.093a1.882,1.882,0,0,1-.246.09c-.052.018-.1.043-.155.057a1.973,1.973,0,0,1-.5.069h0a1.973,1.973,0,0,1-.5-.069c-.053-.014-.1-.038-.155-.057a1.881,1.881,0,0,1-.246-.09c-9.653-4.907-15.4-10.321-17.077-16.093a10.4,10.4,0,0,1,5.422-12.248c5.181-2.445,10.171.7,12.552,2.646,2.381-1.945,7.372-5.094,12.553-2.646A10.4,10.4,0,0,1-81.177,871.259Zm-7.116-8.661c-4.422-2.086-9.369,3.044-9.418,3.1-.014.015-.031.026-.046.04s-.022.029-.036.042c-.033.031-.071.053-.106.081a1.922,1.922,0,0,1-.17.131c-.052.033-.1.061-.159.089a1.915,1.915,0,0,1-.184.089,1.751,1.751,0,0,1-.175.058,1.9,1.9,0,0,1-.19.05c-.061.012-.122.017-.185.024s-.128.013-.192.012-.124-.006-.186-.012a1.9,1.9,0,0,1-.19-.024c-.063-.012-.123-.03-.185-.048s-.121-.036-.18-.059a1.992,1.992,0,0,1-.181-.089,1.807,1.807,0,0,1-.16-.091,2.016,2.016,0,0,1-.171-.131c-.034-.028-.071-.049-.1-.08-.014-.013-.024-.029-.038-.043s-.034-.027-.048-.043c-.049-.052-4.961-5.192-9.415-3.092a6.4,6.4,0,0,0-3.308,7.554c.908,3.124,4.119,7.914,14.167,13.2,10.048-5.284,13.259-10.075,14.168-13.2A6.406,6.406,0,0,0-88.293,862.6Z" transform="translate(160.259 -820.107)"/>
      <path id="Trazado_10709" data-name="Trazado 10709" d="M-133.382,882.5a1.983,1.983,0,0,1-1.95,1.638,1.962,1.962,0,0,1-.348-.031,1.983,1.983,0,0,1-1.607-2.3c.054-.3.1-.61.148-.918a1.986,1.986,0,0,1,2.246-1.678,1.982,1.982,0,0,1,1.678,2.247Q-133.291,881.983-133.382,882.5Z" transform="translate(226.522 -826.441)"/>
      <path id="Trazado_10710" data-name="Trazado 10710" d="M-110.781,837.947a1.963,1.963,0,0,1-.936-.236c-.606-.325-1.226-.63-1.844-.905a1.984,1.984,0,0,1-1-2.62,1.984,1.984,0,0,1,2.619-1c.7.315,1.411.662,2.1,1.032a1.983,1.983,0,0,1,.809,2.685A1.982,1.982,0,0,1-110.781,837.947Z" transform="translate(186.328 -812.561)"/>
      <path id="Trazado_10711" data-name="Trazado 10711" d="M-124.376,849.4a1.972,1.972,0,0,1-1.195.4,1.977,1.977,0,0,1-1.582-.787c-.411-.543-.848-1.079-1.3-1.593a1.983,1.983,0,0,1,.184-2.8,1.982,1.982,0,0,1,2.8.185c.512.584,1.009,1.195,1.478,1.814A1.982,1.982,0,0,1-124.376,849.4Z" transform="translate(211.058 -815.904)"/>
      <path id="Trazado_10712" data-name="Trazado 10712" d="M-133.817,866.567a1.96,1.96,0,0,1-.425.045,1.983,1.983,0,0,1-1.935-1.56c-.145-.666-.317-1.335-.51-1.99a1.982,1.982,0,0,1,1.341-2.462,1.981,1.981,0,0,1,2.463,1.341c.22.745.415,1.508.581,2.267A1.983,1.983,0,0,1-133.817,866.567Z" transform="translate(225.199 -820.828)"/>
      <path id="Trazado_10713" data-name="Trazado 10713" d="M-93.853,833.241c-.308-.017-.618-.031-.928-.04a1.983,1.983,0,0,1-1.929-2.035,1.983,1.983,0,0,1,1.981-1.93h.054q.529.015,1.053.045a1.982,1.982,0,0,1,1.864,2.095,1.983,1.983,0,0,1-1.978,1.868C-93.774,833.245-93.813,833.243-93.853,833.241Z" transform="translate(156.679 -811.426)"/>
      <path id="Trazado_10714" data-name="Trazado 10714" d="M-50.909,866.734a1.985,1.985,0,0,1,2.3-1.6,1.983,1.983,0,0,1,1.6,2.3q-.082.456-.15.916a1.983,1.983,0,0,1-1.959,1.695,2.051,2.051,0,0,1-.291-.021,1.984,1.984,0,0,1-1.674-2.25Q-51,867.252-50.909,866.734Z" transform="translate(79.997 -822.205)"/>
      <path id="Trazado_10715" data-name="Trazado 10715" d="M-50.458,881.829a1.977,1.977,0,0,1,2.343,1.539c.135.651.3,1.308.476,1.954a1.983,1.983,0,0,1-1.372,2.445,2.011,2.011,0,0,1-.537.073,1.983,1.983,0,0,1-1.908-1.447c-.206-.734-.388-1.482-.541-2.223A1.981,1.981,0,0,1-50.458,881.829Z" transform="translate(81.243 -827.22)"/>
      <path id="Trazado_10716" data-name="Trazado 10716" d="M-59.781,898.9a1.983,1.983,0,0,1,2.769.441c.392.54.808,1.073,1.237,1.584a1.983,1.983,0,0,1-.246,2.793,1.976,1.976,0,0,1-1.273.464,1.979,1.979,0,0,1-1.52-.708c-.488-.583-.962-1.189-1.408-1.8A1.983,1.983,0,0,1-59.781,898.9Z" transform="translate(94.978 -832.25)"/>
      <path id="Trazado_10717" data-name="Trazado 10717" d="M-72.05,911.037c.579.334,1.176.651,1.774.942a1.983,1.983,0,0,1,.918,2.65,1.983,1.983,0,0,1-1.785,1.117,1.98,1.98,0,0,1-.865-.2c-.683-.332-1.363-.693-2.023-1.073a1.982,1.982,0,0,1-.727-2.708A1.983,1.983,0,0,1-72.05,911.037Z" transform="translate(118.914 -835.931)"/>
      <path id="Trazado_10718" data-name="Trazado 10718" d="M-88.07,916.455a1.983,1.983,0,0,1,1.848,2.109,1.983,1.983,0,0,1-1.977,1.852c-.044,0-.089,0-.133,0q-.528-.035-1.051-.085a1.983,1.983,0,0,1-1.78-2.166A1.991,1.991,0,0,1-89,916.38Q-88.535,916.425-88.07,916.455Z" transform="translate(147.269 -837.614)"/>
    </g>
  </g>
</svg>
