<svg id="captacion_de_ahorro_icon" data-name="captacion de ahorro icon" xmlns="http://www.w3.org/2000/svg" width="124.433" height="114.918" viewBox="0 0 124.433 114.918">
  <circle id="Elipse_50" data-name="Elipse 50" cx="35.5" cy="35.5" r="35.5" transform="translate(0 27.665)" fill="#0400e9"/>
  <g id="Grupo_1900" data-name="Grupo 1900" transform="translate(14)">
    <path id="Trazado_10690" data-name="Trazado 10690" d="M-63.589,503.536a2.22,2.22,0,0,1-2.481,1.942,27.239,27.239,0,0,0-3.75-.208,28.71,28.71,0,0,0-19.206,7.644,2.215,2.215,0,0,1-1.509.59,2.223,2.223,0,0,1-1.638-.718,2.227,2.227,0,0,1,.128-3.147,33.571,33.571,0,0,1,5.257-3.962A10.1,10.1,0,0,1-91.732,497,10.118,10.118,0,0,1-81.627,486.9,10.118,10.118,0,0,1-71.521,497a10.054,10.054,0,0,1-.8,3.934c.815-.069,1.633-.116,2.456-.124a34.168,34.168,0,0,1,4.331.242A2.226,2.226,0,0,1-63.589,503.536Zm-18.038-12.184A5.658,5.658,0,0,0-87.278,497a5.656,5.656,0,0,0,5.651,5.65A5.657,5.657,0,0,0-75.975,497,5.659,5.659,0,0,0-81.627,491.352Z" transform="translate(124.943 -456.973)"/>
    <path id="Trazado_10691" data-name="Trazado 10691" d="M-122.575,527.084c1.646,2.026,3.36,3.057,5.094,3.064h.02c3.053,0,5.591-3,5.646-3.07a2.229,2.229,0,0,1,3.128-.317,2.227,2.227,0,0,1,.324,3.134c-.156.192-3.886,4.709-9.1,4.709-3.148,0-6.031-1.585-8.571-4.709a2.228,2.228,0,0,1,.324-3.134A2.227,2.227,0,0,1-122.575,527.084Z" transform="translate(195.769 -465.407)"/>
    <path id="Trazado_10692" data-name="Trazado 10692" d="M-153.963,518.493a2.23,2.23,0,0,1,2.984,1.01c2.562,5.175,5.755,6.674,7.686,7.09,1.106-8.678,6.5-16.746,15.2-22.512a2.227,2.227,0,0,1,3.087.625,2.227,2.227,0,0,1-.626,3.086c-8.534,5.659-13.429,13.723-13.429,22.126,0,7.016,3.442,13.819,9.558,19.166v-.9a2.228,2.228,0,0,1,2.228-2.228,2.228,2.228,0,0,1,2.227,2.228v19.249h9.3V555.651a2.228,2.228,0,0,1,2.228-2.228,2.228,2.228,0,0,1,2.227,2.228v2.543a53.666,53.666,0,0,0,12.768,1.516,54.349,54.349,0,0,0,9.756-.891v-3.167a2.228,2.228,0,0,1,2.227-2.228,2.228,2.228,0,0,1,2.228,2.228v11.785h9.3V548.187a2.228,2.228,0,0,1,2.227-2.228,2.228,2.228,0,0,1,2.228,2.228v3.26a31.324,31.324,0,0,0,10-11.117H-63.76a2.227,2.227,0,0,1-2.227-2.228,2.228,2.228,0,0,1,2.227-2.228h14.536v-12.3h-8.1c-.024,0-.047-.006-.071-.007a2.19,2.19,0,0,1-.313-.031c-.059-.01-.116-.025-.174-.04s-.133-.038-.2-.061-.119-.043-.176-.07-.128-.067-.191-.1-.138-.085-.2-.133a2.259,2.259,0,0,1-.212-.175c-.042-.04-.079-.084-.117-.127s-.093-.106-.135-.163-.072-.1-.105-.157-.064-.112-.092-.171-.061-.122-.086-.185c0-.011-.01-.02-.014-.031a29.706,29.706,0,0,0-11-13.63,2.21,2.21,0,0,1-.4-.335c-.012-.013-.021-.027-.032-.039a2.23,2.23,0,0,1-.233-.3c-.013-.021-.022-.043-.035-.064a2.195,2.195,0,0,1-.158-.32c-.009-.025-.015-.052-.024-.077a2.145,2.145,0,0,1-.091-.335c-.006-.036-.006-.072-.011-.109a2.167,2.167,0,0,1-.028-.278V493.916l-9.541,8.045c-.02.017-.043.027-.064.044a2.306,2.306,0,0,1-.205.141c-.046.028-.092.061-.14.086a2.247,2.247,0,0,1-.336.142c-.058.019-.118.029-.177.042a2.08,2.08,0,0,1-.208.043c-.063.009-.126.012-.189.015-.038,0-.077.009-.116.009s-.064-.006-.1-.007c-.057,0-.112-.006-.167-.012a2.138,2.138,0,0,1-.219-.04c-.054-.012-.108-.02-.161-.036l-.008,0a52.061,52.061,0,0,0-10.188-2.007,2.227,2.227,0,0,1-2-2.43,2.229,2.229,0,0,1,2.43-2,56.8,56.8,0,0,1,9.874,1.852l12.3-10.376a2.226,2.226,0,0,1,2.375-.317,2.228,2.228,0,0,1,1.289,2.019v16.369a34.34,34.34,0,0,1,11.143,13.627H-47a2.228,2.228,0,0,1,2.228,2.228V538.1A2.227,2.227,0,0,1-47,540.33h-8.661c-2.694,6.446-7.927,12.213-14.91,16.432v12.9a2.227,2.227,0,0,1-2.228,2.228H-86.547a2.227,2.227,0,0,1-2.227-2.228v-6.313a59.028,59.028,0,0,1-9.756.814,58.307,58.307,0,0,1-12.768-1.4v6.9a2.227,2.227,0,0,1-2.227,2.228h-13.751a2.227,2.227,0,0,1-2.228-2.228v-14.9c-8.547-6.178-13.573-14.7-13.972-23.689-2.961-.431-7.89-2.308-11.5-9.6A2.227,2.227,0,0,1-153.963,518.493Z" transform="translate(155.203 -456.973)"/>
    <path id="Trazado_10693" data-name="Trazado 10693" d="M-94.278,563.98a2.228,2.228,0,0,1,2.228,2.228,2.227,2.227,0,0,1-2.228,2.228h-.343a2.227,2.227,0,0,1-2.228-2.228,2.228,2.228,0,0,1,2.228-2.228Z" transform="translate(156.632 -473.488)"/>
    <path id="Trazado_10694" data-name="Trazado 10694" d="M-85.35,563.98a2.228,2.228,0,0,1,2.227,2.228,2.227,2.227,0,0,1-2.227,2.228h-.344a2.227,2.227,0,0,1-2.227-2.228,2.228,2.228,0,0,1,2.227-2.228Z" transform="translate(140.689 -473.488)"/>
    <path id="Trazado_10695" data-name="Trazado 10695" d="M-76.35,563.98a2.228,2.228,0,0,1,2.228,2.228,2.227,2.227,0,0,1-2.228,2.228h-.343a2.227,2.227,0,0,1-2.228-2.228,2.228,2.228,0,0,1,2.228-2.228Z" transform="translate(124.617 -473.488)"/>
    <path id="Trazado_10696" data-name="Trazado 10696" d="M-76.8,476.01a2.227,2.227,0,0,1-2.227-2.228v-8.741a2.228,2.228,0,0,1,2.227-2.228,2.228,2.228,0,0,1,2.227,2.228v8.741A2.227,2.227,0,0,1-76.8,476.01Z" transform="translate(125.142 -451.813)"/>
    <path id="Trazado_10697" data-name="Trazado 10697" d="M-76.8,458.429a2.227,2.227,0,0,1-2.227-2.228v-2.161a2.228,2.228,0,0,1,2.227-2.228,2.228,2.228,0,0,1,2.227,2.228V456.2A2.227,2.227,0,0,1-76.8,458.429Z" transform="translate(125.142 -449.456)"/>
    <path id="Trazado_10698" data-name="Trazado 10698" d="M-65.794,462.01a2.227,2.227,0,0,1-2.227-2.228v-8.741a2.228,2.228,0,0,1,2.227-2.228,2.228,2.228,0,0,1,2.227,2.228v8.741A2.227,2.227,0,0,1-65.794,462.01Z" transform="translate(105.497 -448.813)"/>
    <path id="Trazado_10699" data-name="Trazado 10699" d="M-65.794,474.8a2.227,2.227,0,0,1-2.227-2.228v-2.161a2.228,2.228,0,0,1,2.227-2.228,2.228,2.228,0,0,1,2.227,2.228v2.161A2.227,2.227,0,0,1-65.794,474.8Z" transform="translate(105.497 -452.964)"/>
  </g>
</svg>
