<svg id="comentarios_icon_redes" data-name="comentarios icon redes" xmlns="http://www.w3.org/2000/svg" width="45.311" height="45.513" viewBox="0 0 45.311 45.513">
  <path id="Trazado_10912" data-name="Trazado 10912" d="M690.841,1360.293c.534-1.117,1.062-2.142,1.52-3.2a22.962,22.962,0,0,0,1.79-9.111c0-.3-.172-.336-.375-.386a26.564,26.564,0,0,1-6.61-2.512,17.885,17.885,0,0,1-7.873-7.867,12.581,12.581,0,0,1,.605-12.448,17.252,17.252,0,0,1,5.092-5.34,26.135,26.135,0,0,1,12.716-4.5,29.477,29.477,0,0,1,9.5.587,23.9,23.9,0,0,1,10.742,5.3,14.884,14.884,0,0,1,4.964,7.937,12.681,12.681,0,0,1-1.519,9.449,18.843,18.843,0,0,1-7.969,7.211,27.936,27.936,0,0,1-5.372,2.038,2.172,2.172,0,0,0-.789.427c-3.723,3.145-7.447,6.29-11.393,9.153-1.54,1.117-3.177,2.1-4.77,3.146A2.763,2.763,0,0,1,690.841,1360.293Z" transform="translate(-677.93 -1314.78)" fill="#f4f5f7"/>
</svg>
