<svg id="emergencias_medicas_icon" data-name="emergencias medicas icon" xmlns="http://www.w3.org/2000/svg" width="119.62" height="98.655" viewBox="0 0 119.62 98.655">
  <circle id="Elipse_51" data-name="Elipse 51" cx="35.5" cy="35.5" r="35.5" transform="translate(0 12.031)" fill="#bf0811"/>
  <g id="Grupo_1901" data-name="Grupo 1901" transform="translate(21)">
    <path id="Trazado_10700" data-name="Trazado 10700" d="M-129.2,674.331l-10.291,2.891c-.018,0-.036,0-.055.007a2.1,2.1,0,0,1-.515.071h0a2.066,2.066,0,0,1-.385-.039c-.045-.008-.087-.021-.131-.033a1.958,1.958,0,0,1-.234-.073c-.048-.018-.094-.038-.14-.059a1.971,1.971,0,0,1-.206-.112c-.04-.024-.08-.047-.118-.074a2.266,2.266,0,0,1-.222-.183c-.02-.019-.043-.036-.062-.056a2.041,2.041,0,0,1-.243-.293c-.014-.021-.024-.044-.037-.065a2.117,2.117,0,0,1-.144-.265c-.02-.044-.034-.091-.051-.137s-.042-.1-.056-.15c-.007-.024-.007-.047-.013-.07a2.018,2.018,0,0,1-.037-.213,1.974,1.974,0,0,1-.022-.219c0-.024-.007-.045-.007-.069V650.744a2.106,2.106,0,0,1,.027-.267,2.114,2.114,0,0,1-.025-.276c0-.222.006-.444.013-.667a28.39,28.39,0,0,1,28.511-27.627,28.222,28.222,0,0,1,12.957,3.107,2.108,2.108,0,0,1,.919,2.836,2.107,2.107,0,0,1-2.836.919,24.043,24.043,0,0,0-11.039-2.645,24.19,24.19,0,0,0-24.3,23.537c-.006.189-.01.379-.011.568a2.2,2.2,0,0,1-.028.254,2.133,2.133,0,0,1,.026.26v21.664l4.66-1.308c-.468-.445-.928-.9-1.366-1.378a2.108,2.108,0,0,1,.126-2.979,2.107,2.107,0,0,1,2.98.127,24.378,24.378,0,0,0,17.908,7.871,24.336,24.336,0,0,0,24.308-24.308,24.137,24.137,0,0,0-4.53-14.135,2.109,2.109,0,0,1,.487-2.942,2.11,2.11,0,0,1,2.942.487,28.331,28.331,0,0,1,5.318,16.591,28.558,28.558,0,0,1-28.525,28.526A28.594,28.594,0,0,1-129.2,674.331Z" transform="translate(183.735 -621.907)"/>
    <path id="Trazado_10701" data-name="Trazado 10701" d="M-112.86,641.124h9.121a2.109,2.109,0,0,1,2.108,2.109v5.235h5.237a2.109,2.109,0,0,1,2.108,2.109V659.7a2.109,2.109,0,0,1-2.108,2.109h-5.237v5.236a2.109,2.109,0,0,1-2.108,2.109h-9.121a2.109,2.109,0,0,1-2.108-2.109v-5.236H-120.2a2.109,2.109,0,0,1-2.109-2.109v-9.121a2.109,2.109,0,0,1,2.109-2.109h5.236v-5.235A2.109,2.109,0,0,1-112.86,641.124Zm-5.236,16.465h5.236a2.109,2.109,0,0,1,2.109,2.109v5.236h4.9V659.7a2.108,2.108,0,0,1,2.108-2.109H-98.5v-4.9h-5.236a2.109,2.109,0,0,1-2.108-2.109v-5.235h-4.9v5.235a2.109,2.109,0,0,1-2.109,2.109H-118.1Z" transform="translate(178.137 -626.829)"/>
    <path id="Trazado_10702" data-name="Trazado 10702" d="M-126.041,699.275a2.108,2.108,0,0,1,2.9.691,88.722,88.722,0,0,0,12.9,15.954c24.215,24.216,42.564,21.6,51.993,17.288l-16.768-16.768c-.516.933-1.062,1.993-1.639,3.214a2.118,2.118,0,0,1-.7.827c-.687.481-4.529,2.652-12.593-1.867a2.108,2.108,0,0,1-.809-2.87,2.106,2.106,0,0,1,2.87-.809c4.409,2.47,6.853,2.362,7.779,2.16a51.536,51.536,0,0,1,2.562-4.682,2.092,2.092,0,0,1,.537-.945,2.08,2.08,0,0,1,.179-.146,18.388,18.388,0,0,1,3.444-3.958,5.784,5.784,0,0,1,7.747.4l16.742,16.742a5.506,5.506,0,0,1,1.417,5.322,5.169,5.169,0,0,1-1.641,2.589,30.72,30.72,0,0,1-4.405,3.078c-.05.033-.1.06-.154.089A35.457,35.457,0,0,1-71.447,740.3c-10.878,0-25.141-4.766-41.77-21.4a92.911,92.911,0,0,1-13.515-16.727A2.108,2.108,0,0,1-126.041,699.275Zm74.5,29.451a1.278,1.278,0,0,0-.329-1.237l-16.741-16.741a1.577,1.577,0,0,0-2.112-.108,12.128,12.128,0,0,0-1.976,2.147l18.307,18.307a24.826,24.826,0,0,0,2.542-1.883A.964.964,0,0,0-51.542,728.726Z" transform="translate(134.653 -641.643)"/>
    <path id="Trazado_10703" data-name="Trazado 10703" d="M-54.951,643.647a2.1,2.1,0,0,1,.243-.432A30.831,30.831,0,0,1-52,639.2a5.855,5.855,0,0,1,3.613-2.1,5.436,5.436,0,0,1,4.712,1.515L-28.2,654.083a6.35,6.35,0,0,1,.282,8.714c-2.6,2.914-7.039,5.566-8.691,6.5-.39,1.407-.887,7.308,11.75,19.945q.951.951,1.857,1.81a2.108,2.108,0,0,1,.077,2.981,2.1,2.1,0,0,1-1.529.658,2.1,2.1,0,0,1-1.451-.579q-.945-.9-1.936-1.888c-17.065-17.064-13.058-24.4-12.081-25.7a2.115,2.115,0,0,1,.693-.594c.027-.014,1.335-.718,2.976-1.779l-16.156-16.157c-2.409,5.381-4.3,13.678-1.021,24.2a2.107,2.107,0,0,1-1.386,2.64,2.106,2.106,0,0,1-2.641-1.385C-61.7,659.865-58.175,649.5-54.951,643.647ZM-32.8,661.64a16.789,16.789,0,0,0,1.736-1.652,2.13,2.13,0,0,0-.119-2.923l-15.475-15.477a1.2,1.2,0,0,0-1.043-.335,1.643,1.643,0,0,0-1.014.585,25.372,25.372,0,0,0-1.614,2.271Z" transform="translate(59.409 -625.778)"/>
  </g>
</svg>
