<svg id="instagram_icon" data-name="instagram icon" xmlns="http://www.w3.org/2000/svg" width="14.545" height="14.545" viewBox="0 0 14.545 14.545">
  <path id="Shape" d="M20.462,8.727H11.538a2.814,2.814,0,0,0-2.811,2.811v8.923a2.814,2.814,0,0,0,2.811,2.811h8.923a2.814,2.814,0,0,0,2.811-2.811V11.538a2.814,2.814,0,0,0-2.811-2.811Zm.806,1.677.322,0v2.466l-2.458.008-.009-2.466,2.145-.006Zm-7.344,4.1A2.556,2.556,0,1,1,13.44,16a2.557,2.557,0,0,1,.484-1.493Zm7.931,5.955a1.4,1.4,0,0,1-1.394,1.394H11.538a1.4,1.4,0,0,1-1.394-1.394V14.507h2.172a3.977,3.977,0,1,0,7.368,0h2.171v5.955Z" transform="translate(-8.727 -8.727)" fill-rule="evenodd"/>
</svg>
