<svg id="instagram_icon_redes" data-name="instagram icon redes" xmlns="http://www.w3.org/2000/svg" width="71.091" height="71.092" viewBox="0 0 71.091 71.092">
  <path id="Shape" d="M66.079,8.727H22.467A13.755,13.755,0,0,0,8.727,22.467V66.079A13.755,13.755,0,0,0,22.467,79.819H66.079A13.755,13.755,0,0,0,79.819,66.079V22.467A13.755,13.755,0,0,0,66.079,8.727Zm3.942,8.2,1.572-.008V28.966L59.58,29l-.042-12.051,10.483-.029ZM34.128,36.975a12.493,12.493,0,1,1-2.366,7.3,12.5,12.5,0,0,1,2.366-7.3Zm38.764,29.1a6.82,6.82,0,0,1-6.813,6.813H22.467a6.82,6.82,0,0,1-6.813-6.813v-29.1H26.27a19.439,19.439,0,1,0,36.01,0H72.893v29.1Z" transform="translate(-8.727 -8.727)" fill="#fff" fill-rule="evenodd"/>
</svg>
