<svg xmlns="http://www.w3.org/2000/svg" width="48.699" height="45.514" viewBox="0 0 48.699 45.514">
  <g id="me_gusta_icon_redes" data-name="me gusta icon redes" transform="translate(0)">
    <path id="Trazado_10911" data-name="Trazado 10911" d="M618.544,1319.093c4.319-4.024,9.221-5.307,14.737-3.531,7.184,2.313,10.89,9.5,9.191,17.515-1.495,7.05-5.386,12.748-10.557,17.473-3.794,3.467-8.129,6.346-12.276,9.415a2.08,2.08,0,0,1-1.848.188c-8.418-4.988-15.764-11.132-20.548-19.862-2.4-4.377-3.683-9.11-2.764-14.106a14.1,14.1,0,0,1,22.883-8.113C617.716,1318.369,618.061,1318.676,618.544,1319.093Z" transform="translate(-594.181 -1314.78)" fill="#f4f5f7"/>
  </g>
</svg>
