<svg id="mision_icon" data-name="mision icon" xmlns="http://www.w3.org/2000/svg" width="85.253" height="86.087" viewBox="0 0 85.253 86.087">
  <path id="Trazado_10656" data-name="Trazado 10656" d="M-452.136,263.536a2.705,2.705,0,0,0-1.3,3.6,32.184,32.184,0,0,1,3.051,13.24,32.25,32.25,0,0,1-9.135,23.1,32.246,32.246,0,0,1-22.8,9.879,32.371,32.371,0,0,1-23.1-9.135,32.248,32.248,0,0,1-9.878-22.8,32.255,32.255,0,0,1,9.135-23.1,32.249,32.249,0,0,1,22.8-9.878A32.416,32.416,0,0,1-467.2,252.45a2.7,2.7,0,0,0,3.672-1.062,2.7,2.7,0,0,0-1.061-3.672,37.813,37.813,0,0,0-18.871-4.679,37.616,37.616,0,0,0-26.592,11.523,37.622,37.622,0,0,0-10.657,26.953,37.62,37.62,0,0,0,11.524,26.593,37.607,37.607,0,0,0,26.321,10.66c.21,0,.421,0,.631-.006a37.617,37.617,0,0,0,26.592-11.523,37.618,37.618,0,0,0,10.657-26.951,37.592,37.592,0,0,0-3.562-15.45A2.7,2.7,0,0,0-452.136,263.536Z" transform="translate(520.71 -232.679)" fill="#bf0811"/>
  <path id="Trazado_10657" data-name="Trazado 10657" d="M-470.2,258.8a2.7,2.7,0,0,0-1.473-3.527,27.848,27.848,0,0,0-11.153-2.1,28.225,28.225,0,0,0-27.734,28.646,28.012,28.012,0,0,0,8.581,19.8,27.994,27.994,0,0,0,19.6,7.938c.155,0,.313,0,.469,0a28.226,28.226,0,0,0,27.734-28.646,28.233,28.233,0,0,0-1.432-8.449,2.7,2.7,0,0,0-3.419-1.712,2.7,2.7,0,0,0-1.712,3.418A22.8,22.8,0,0,1-459.587,281,22.638,22.638,0,0,1-466,297.218a22.639,22.639,0,0,1-16,6.936,22.766,22.766,0,0,1-16.219-6.413,22.634,22.634,0,0,1-6.935-16,22.639,22.639,0,0,1,6.413-16.219,22.634,22.634,0,0,1,16-6.935,22.549,22.549,0,0,1,9.012,1.693A2.7,2.7,0,0,0-470.2,258.8Z" transform="translate(520.24 -233.149)" fill="#bf0811"/>
  <path id="Trazado_10658" data-name="Trazado 10658" d="M-482.031,270.083a11.875,11.875,0,0,1,1.566.077,2.7,2.7,0,0,0,3-2.374,2.7,2.7,0,0,0-2.375-3,17.159,17.159,0,0,0-2.271-.113,17.247,17.247,0,0,0-16.947,17.5,17.117,17.117,0,0,0,5.243,12.1,17.11,17.11,0,0,0,11.973,4.85l.287,0a17.109,17.109,0,0,0,12.1-5.242,17.118,17.118,0,0,0,4.848-12.262,2.7,2.7,0,0,0-2.7-2.66h-.044a2.7,2.7,0,0,0-2.66,2.746,11.74,11.74,0,0,1-3.326,8.413,11.745,11.745,0,0,1-8.3,3.6,11.735,11.735,0,0,1-8.414-3.327,11.738,11.738,0,0,1-3.6-8.3A11.834,11.834,0,0,1-482.031,270.083Z" transform="translate(519.706 -233.683)" fill="#bf0811"/>
  <path id="Trazado_10659" data-name="Trazado 10659" d="M-436.611,242.426h-6.713v-7.548a2.7,2.7,0,0,0-2.7-2.7,2.7,2.7,0,0,0-2.7,2.7v9.132L-479.416,274.7a5.988,5.988,0,0,0-1.876-.3,6,6,0,0,0-6,6,6,6,0,0,0,6,6,6,6,0,0,0,6-6,5.989,5.989,0,0,0-.3-1.877l30.686-30.685h8.3a2.7,2.7,0,0,0,2.7-2.7A2.7,2.7,0,0,0-436.611,242.426Z" transform="translate(519.16 -232.175)" fill="#bf0811"/>
</svg>
