<svg id="nuestros_valores_icon" data-name="nuestros valores icon" xmlns="http://www.w3.org/2000/svg" width="85.155" height="86.208" viewBox="0 0 85.155 86.208">
  <path id="Trazado_10676" data-name="Trazado 10676" d="M-408.763,236.877a2.835,2.835,0,0,0,2.834-2.835V222.875a2.835,2.835,0,0,0-2.834-2.835,2.835,2.835,0,0,0-2.835,2.835v11.167A2.835,2.835,0,0,0-408.763,236.877Z" transform="translate(451.293 -220.04)"/>
  <path id="Trazado_10677" data-name="Trazado 10677" d="M-425.147,236.883a2.83,2.83,0,0,0,2.429,1.369,2.831,2.831,0,0,0,1.463-.408,2.836,2.836,0,0,0,.96-3.893l-4.958-8.209a2.837,2.837,0,0,0-3.893-.961,2.836,2.836,0,0,0-.96,3.893Z" transform="translate(451.293 -220.04)"/>
  <path id="Trazado_10678" data-name="Trazado 10678" d="M-396.175,237.844a2.832,2.832,0,0,0,1.464.408,2.831,2.831,0,0,0,2.428-1.369l4.959-8.209a2.836,2.836,0,0,0-.961-3.893,2.837,2.837,0,0,0-3.892.961l-4.958,8.209A2.835,2.835,0,0,0-396.175,237.844Z" transform="translate(451.293 -220.04)"/>
  <path id="Trazado_10679" data-name="Trazado 10679" d="M-366.961,261.221l-15.875-15.875-.013-.011c-.055-.054-.121-.1-.181-.149a2.869,2.869,0,0,0-.262-.207c-.007-.005-.012-.011-.019-.015-.061-.04-.128-.063-.191-.1a2.821,2.821,0,0,0-.285-.145,2.6,2.6,0,0,0-.293-.089c-.079-.022-.156-.05-.237-.066a2.83,2.83,0,0,0-.331-.032c-.065-.005-.127-.019-.192-.019H-432.4c-.062,0-.122.014-.184.018a2.667,2.667,0,0,0-.356.035c-.084.016-.163.048-.245.071a2.9,2.9,0,0,0-.284.087,2.8,2.8,0,0,0-.4.207c-.032.019-.066.031-.1.051l0,0a2.827,2.827,0,0,0-.439.358l0,0h0l-16.06,16.059c-.031.032-.056.068-.086.1-.047.052-.094.1-.137.159s-.085.115-.124.174-.074.112-.107.17-.07.133-.1.2c-.017.036-.039.07-.055.107s-.014.047-.023.07c-.027.069-.049.14-.07.212s-.038.126-.053.19-.026.139-.036.209-.02.133-.025.2-.005.139-.005.209,0,.136,0,.2.015.137.025.206.02.137.035.2.033.129.052.193.043.141.07.21c.009.024.014.05.024.074s.037.069.053.1c.032.068.064.134.1.2s.069.115.106.171.08.117.123.174.09.108.137.161c.028.03.051.064.081.094l39.5,40,.006.006a2.829,2.829,0,0,0,.383.317c.046.033.1.06.142.089a2.849,2.849,0,0,0,.3.164c.055.025.109.049.166.071a2.774,2.774,0,0,0,.339.1c.051.013.1.029.151.039a2.9,2.9,0,0,0,.495.052h.032a2.861,2.861,0,0,0,.509-.05c.05-.01.1-.024.147-.036a2.7,2.7,0,0,0,.345-.1c.053-.02.1-.04.155-.063a2.734,2.734,0,0,0,.325-.174c.04-.024.082-.046.12-.072a2.823,2.823,0,0,0,.389-.318l.014-.012,40-40a2.828,2.828,0,0,0,.821-2.1A2.825,2.825,0,0,0-366.961,261.221Zm-50.951,5.027h18.8l-9.753,28.2Zm9.238-14.459,7.339,8.678-14.436.035Zm-12.885,6.842-5.576-8.445h12.455Zm18.953-8.445h12.583l-5.424,8.464Zm12.745,10.254,5.507-8.594,8.562,8.561Zm-42.993-8.629,5.754,8.717-14.505.035Zm8.988,14.437,8.574,26.724-26.39-26.724ZM-402.26,292.7l9.147-26.452h17.3Z" transform="translate(451.293 -220.04)"/>
</svg>
