<svg id="optica_icon" data-name="optica icon" xmlns="http://www.w3.org/2000/svg" width="173.124" height="86.546" viewBox="0 0 173.124 86.546">
  <circle id="Elipse_66" data-name="Elipse 66" cx="35.5" cy="35.5" r="35.5" fill="#bf0811"/>
  <g id="Grupo_2044" data-name="Grupo 2044" transform="translate(14 31.298)">
    <path id="Trazado_10730" data-name="Trazado 10730" d="M-129.636,1308.923a2.5,2.5,0,0,0,1.77-.734l21.858-21.858a2.5,2.5,0,0,0,0-3.541,2.5,2.5,0,0,0-3.541,0l-21.858,21.858a2.5,2.5,0,0,0,0,3.541A2.5,2.5,0,0,0-129.636,1308.923Z" transform="translate(155.838 -1271.634)"/>
    <path id="Trazado_10731" data-name="Trazado 10731" d="M-25.062,1282.791l-21.858,21.858a2.5,2.5,0,0,0,0,3.541,2.5,2.5,0,0,0,1.771.733,2.5,2.5,0,0,0,1.77-.734l21.858-21.858a2.5,2.5,0,0,0,0-3.541A2.5,2.5,0,0,0-25.062,1282.791Z" transform="translate(145.98 -1271.634)"/>
    <path id="Trazado_10732" data-name="Trazado 10732" d="M-8.62,1283.773h-4a19.211,19.211,0,0,0-3.71-5.333,2.5,2.5,0,0,0-.312-.383,2.5,2.5,0,0,0-.435-.343c-5.3-4.881-13.727-7.457-24.937-7.457-17.246,0-27.907,6.088-30.731,17.305a16.246,16.246,0,0,0-13.313,0,19.712,19.712,0,0,0-4.724-8.8,2.482,2.482,0,0,0-.489-.714,2.485,2.485,0,0,0-.789-.528c-5.314-4.759-13.663-7.271-24.73-7.271a61.612,61.612,0,0,0-8.835.6,2.5,2.5,0,0,0-2.117,2.838,2.5,2.5,0,0,0,2.838,2.116,56.869,56.869,0,0,1,8.114-.542q13.313,0,19.962,4.806l-6.883,6.883a2.505,2.505,0,0,0,0,3.542,2.5,2.5,0,0,0,1.77.733,2.5,2.5,0,0,0,1.771-.733l6.885-6.885a17.491,17.491,0,0,1,2.978,10.4,26.513,26.513,0,0,1-26.484,26.484,26.32,26.32,0,0,1-10.985-2.4l21.227-21.227a2.5,2.5,0,0,0,0-3.541,2.506,2.506,0,0,0-3.541,0l-22.162,22.162a26.457,26.457,0,0,1-11.023-21.481c0-6.419,2.226-11.056,6.806-14.173a2.5,2.5,0,0,0,.661-3.479,2.5,2.5,0,0,0-3.479-.662,19.605,19.605,0,0,0-6.928,8.073h-3.975a8.786,8.786,0,0,0-8.775,8.775,8.786,8.786,0,0,0,8.775,8.776h2.773a31.594,31.594,0,0,0,13.994,19.415,2.4,2.4,0,0,0,.253.162,31.3,31.3,0,0,0,16.379,4.605A31.526,31.526,0,0,0-85.3,1294.013c0-.4-.011-.791-.027-1.181a11.3,11.3,0,0,1,11.849-.012c-.015.394-.027.79-.027,1.193a31.484,31.484,0,0,0,14.345,26.395c.027.029.047.063.075.092a2.482,2.482,0,0,0,1.068.62,31.291,31.291,0,0,0,16,4.385,31.609,31.609,0,0,0,7.482-.895,2.5,2.5,0,0,0,1.839-3.025,2.5,2.5,0,0,0-3.025-1.84,26.593,26.593,0,0,1-6.3.752,26.324,26.324,0,0,1-11.087-2.442l21.181-21.181a2.5,2.5,0,0,0,0-3.541,2.5,2.5,0,0,0-3.54,0l-22.1,22.1A26.458,26.458,0,0,1-68.5,1294.013c0-12.441,8.911-18.748,26.484-18.748q13.227,0,19.877,4.743l-6.946,6.946a2.5,2.5,0,0,0,0,3.541,2.5,2.5,0,0,0,1.771.734,2.5,2.5,0,0,0,1.77-.733l6.973-6.973a17.446,17.446,0,0,1,3.039,10.489,26.531,26.531,0,0,1-5.992,16.78,2.505,2.505,0,0,0,.348,3.525,2.506,2.506,0,0,0,3.524-.35,31.5,31.5,0,0,0,6.257-12.644H-8.62a8.786,8.786,0,0,0,8.776-8.776A8.786,8.786,0,0,0-8.62,1283.773Zm-141.574,12.542a3.772,3.772,0,0,1-3.767-3.767,3.772,3.772,0,0,1,3.767-3.766h2.388a27.78,27.78,0,0,0-.481,5.232c0,.776.038,1.541.094,2.3Zm141.574,0h-2c.057-.765.091-1.532.091-2.3a27.2,27.2,0,0,0-.488-5.232H-8.62a3.771,3.771,0,0,1,3.767,3.766A3.771,3.771,0,0,1-8.62,1296.315Z" transform="translate(158.968 -1270.257)"/>
  </g>
</svg>
