<svg id="tienda_ames_icon" data-name="tienda ames icon" xmlns="http://www.w3.org/2000/svg" width="111.315" height="86.868" viewBox="0 0 111.315 86.868">
  <circle id="Elipse_72" data-name="Elipse 72" cx="35.5" cy="35.5" r="35.5" fill="#0400e9"/>
  <g id="Grupo_2056" data-name="Grupo 2056" transform="translate(210.76 -972.385)">
    <path id="Trazado_10724" data-name="Trazado 10724" d="M-101.422,1055.3h-3.4v-36.32a11.891,11.891,0,0,0,4.465-9.232v-6.614a1.939,1.939,0,0,0-.044-.41c0-.015-.01-.029-.013-.043a1.926,1.926,0,0,0-.139-.391c-.008-.017-.01-.035-.018-.051l-10.82-21.323a1.979,1.979,0,0,0-1.763-1.083h-63.015a1.978,1.978,0,0,0-1.763,1.083l-10.821,21.323c-.008.017-.01.034-.018.051a1.953,1.953,0,0,0-.138.389c0,.015-.011.03-.014.045a1.98,1.98,0,0,0-.044.409v6.614a11.89,11.89,0,0,0,4.467,9.233v10.609a1.977,1.977,0,0,0,1.977,1.977,1.978,1.978,0,0,0,1.977-1.977v-8.437a12.913,12.913,0,0,0,4.137.688,12.667,12.667,0,0,0,10.582-5.607,12.668,12.668,0,0,0,10.582,5.607,12.669,12.669,0,0,0,10.582-5.606,12.6,12.6,0,0,0,8.6,5.441V1055.3h-44.489v-13.1a1.978,1.978,0,0,0-1.977-1.977,1.977,1.977,0,0,0-1.977,1.977v13.1h-4.28a1.977,1.977,0,0,0-1.977,1.977,1.977,1.977,0,0,0,1.977,1.977h62.637a1.977,1.977,0,0,0,1.977-1.977,1.977,1.977,0,0,0-1.977-1.977h-5.96v-33.625a12.6,12.6,0,0,0,8.6-5.442,12.668,12.668,0,0,0,10.582,5.607,12.92,12.92,0,0,0,4.14-.689V1055.3h-3.068a1.977,1.977,0,0,0-1.977,1.977,1.977,1.977,0,0,0,1.977,1.977h10.426a1.977,1.977,0,0,0,1.977-1.977A1.977,1.977,0,0,0-101.422,1055.3Zm-12.949-71.511,8.813,17.368h-16.377l-4.083-17.368ZM-126,1001.155h-16.691V983.787h12.608Zm-20.645-17.368v17.368h-16.668l4.245-17.368Zm-28.316,0h11.822l-4.245,17.368h-16.391Zm-1.453,34.1a8.391,8.391,0,0,1-8.6-8.137v-4.637h17.21v4.637A8.391,8.391,0,0,1-176.411,1017.884Zm21.164,0a8.391,8.391,0,0,1-8.6-8.137v-4.637h17.21v4.637A8.39,8.39,0,0,1-155.247,1017.884Zm21.164,0a8.391,8.391,0,0,1-8.605-8.137v-4.637h17.21v4.637A8.391,8.391,0,0,1-134.083,1017.884Zm21.164,0a8.39,8.39,0,0,1-8.6-8.137v-4.637h17.21v4.637A8.39,8.39,0,0,1-112.919,1017.884Z" transform="translate(0)"/>
    <path id="Trazado_10725" data-name="Trazado 10725" d="M-141.4,1049.939l-16.152,16.152a1.976,1.976,0,0,0,0,2.8,1.973,1.973,0,0,0,1.4.58,1.971,1.971,0,0,0,1.4-.58l16.151-16.152a1.977,1.977,0,0,0,0-2.8A1.978,1.978,0,0,0-141.4,1049.939Z" transform="translate(-9.87 -21.034)"/>
    <path id="Trazado_10726" data-name="Trazado 10726" d="M-159.971,1048.912l-6.226,6.226a1.977,1.977,0,0,0,0,2.8,1.972,1.972,0,0,0,1.4.58,1.973,1.973,0,0,0,1.4-.579l6.226-6.226a1.977,1.977,0,0,0,0-2.8A1.979,1.979,0,0,0-159.971,1048.912Z" transform="translate(-7.256 -20.723)"/>
    <path id="Trazado_10727" data-name="Trazado 10727" d="M-134.855,1072.812a1.968,1.968,0,0,0,1.4.58,1.972,1.972,0,0,0,1.4-.579l6.047-6.047a1.976,1.976,0,0,0,0-2.8,1.977,1.977,0,0,0-2.8,0l-6.046,6.047A1.976,1.976,0,0,0-134.855,1072.812Z" transform="translate(-16.737 -25.278)"/>
    <path id="Trazado_10728" data-name="Trazado 10728" d="M-95.63,1056.439l-.269.269a1.977,1.977,0,0,0,0,2.8,1.968,1.968,0,0,0,1.4.58,1.969,1.969,0,0,0,1.4-.578l.269-.269a1.977,1.977,0,0,0,0-2.8A1.977,1.977,0,0,0-95.63,1056.439Z" transform="translate(-28.522 -23)"/>
  </g>
</svg>
