<svg id="turismo_icon" data-name="turismo icon" xmlns="http://www.w3.org/2000/svg" width="125.816" height="87.316" viewBox="0 0 125.816 87.316">
  <circle id="Elipse_70" data-name="Elipse 70" cx="35.5" cy="35.5" r="35.5" fill="#bf0811"/>
  <path id="Trazado_10805" data-name="Trazado 10805" d="M-96.245,1145.707h-13.12c0-.051.008-.1.008-.152v-3.767a8.883,8.883,0,0,0-8.873-8.873h-26.531a8.882,8.882,0,0,0-8.872,8.873v3.767c0,.051.006.1.007.152h-13.906a16.784,16.784,0,0,0-16.766,16.765v14.877a2.351,2.351,0,0,0,2.351,2.351,2.351,2.351,0,0,0,2.35-2.351v-14.877a12.076,12.076,0,0,1,10.971-12.008v57.563a12.078,12.078,0,0,1-10.971-12.009v-2.913a2.351,2.351,0,0,0-2.35-2.351,2.351,2.351,0,0,0-2.351,2.351v2.913a16.784,16.784,0,0,0,16.766,16.765h71.286a16.784,16.784,0,0,0,16.765-16.765v-33.546A16.784,16.784,0,0,0-96.245,1145.707Zm-12.4,23.9a2.351,2.351,0,0,0-2.351,2.351v36.123h-43.671v-57.674h43.671v7.039a2.351,2.351,0,0,0,2.351,2.351,2.351,2.351,0,0,0,2.35-2.351v-7.039h4.559v57.674h-4.559V1171.96A2.351,2.351,0,0,0-108.642,1169.609Zm-50.723,38.474h-4.559v-57.674h4.559Zm10.433-62.528v-3.767a4.176,4.176,0,0,1,4.171-4.171h26.531a4.177,4.177,0,0,1,4.172,4.171v3.767a.152.152,0,0,1-.152.152h-34.571A.152.152,0,0,1-148.932,1145.555Zm64.751,50.463a12.079,12.079,0,0,1-12.065,12.065h-.787v-57.674h.787a12.078,12.078,0,0,1,12.065,12.064Z" transform="translate(205.297 -1125.468)"/>
</svg>
