<svg id="vision_icon" data-name="vision icon" xmlns="http://www.w3.org/2000/svg" width="86.389" height="93.971" viewBox="0 0 86.389 93.971">
  <path id="Trazado_10668" data-name="Trazado 10668" d="M-498.11,272.485c-12.3-13.446-24.994-20.933-37.844-22.4a25.069,25.069,0,0,0-3.831-.295c-.143,0-.285.009-.427.011-1.027-.011-2.055.01-3.083.076-23.149,1.505-37.783,22.027-38.394,22.9l-1.27,1.813,1.45,1.672c12.788,14.74,26.2,22.542,39.923,23.275.595.043,1.2.073,1.8.073.064,0,.126-.005.189-.005.047,0,.094.005.141.005.67,0,1.343-.017,2.014-.05,23.539-1.183,38.913-22.611,39.556-23.522l1.315-1.864Zm-22.435,2.209a19.252,19.252,0,0,1-18.878,19.221c-.19,0-.38.011-.57.008a19.256,19.256,0,0,1-19.031-19.229,19.254,19.254,0,0,1,18.917-19.223c.946.016,1.893.077,2.841.168A19.255,19.255,0,0,1-520.545,274.694Zm-55.137-.412a60.1,60.1,0,0,1,14.842-12.871,24.754,24.754,0,0,0-3.853,13.283,24.759,24.759,0,0,0,3.056,11.942A75.407,75.407,0,0,1-575.682,274.282Zm57.349,13.051a24.752,24.752,0,0,0,3.457-12.639,24.749,24.749,0,0,0-3.031-11.9,77.811,77.811,0,0,1,13.978,11.767A63.259,63.259,0,0,1-518.333,287.333Z" transform="translate(582.959 -228.396)" fill="#0400e9"/>
  <path id="Trazado_10669" data-name="Trazado 10669" d="M-551.663,274.694a11.892,11.892,0,0,0,11.878,11.879,11.893,11.893,0,0,0,11.879-11.879,11.893,11.893,0,0,0-11.879-11.879A11.893,11.893,0,0,0-551.663,274.694Zm18.088,0a6.216,6.216,0,0,1-6.21,6.209,6.216,6.216,0,0,1-6.209-6.209,6.217,6.217,0,0,1,6.209-6.209A6.217,6.217,0,0,1-533.575,274.694Z" transform="translate(582.959 -228.396)" fill="#0400e9"/>
  <path id="Trazado_10670" data-name="Trazado 10670" d="M-539.785,245.233a2.835,2.835,0,0,0,2.835-2.835V231.231a2.835,2.835,0,0,0-2.835-2.835,2.835,2.835,0,0,0-2.834,2.835V242.4A2.834,2.834,0,0,0-539.785,245.233Z" transform="translate(582.959 -228.396)" fill="#0400e9"/>
  <path id="Trazado_10671" data-name="Trazado 10671" d="M-556.169,245.239a2.832,2.832,0,0,0,2.429,1.369,2.819,2.819,0,0,0,1.463-.408,2.835,2.835,0,0,0,.961-3.892l-4.959-8.209a2.836,2.836,0,0,0-3.892-.961,2.834,2.834,0,0,0-.96,3.892Z" transform="translate(582.959 -228.396)" fill="#0400e9"/>
  <path id="Trazado_10672" data-name="Trazado 10672" d="M-527.2,246.2a2.819,2.819,0,0,0,1.463.408,2.831,2.831,0,0,0,2.429-1.369l4.958-8.209a2.834,2.834,0,0,0-.96-3.892,2.836,2.836,0,0,0-3.892.961l-4.959,8.209A2.835,2.835,0,0,0-527.2,246.2Z" transform="translate(582.959 -228.396)" fill="#0400e9"/>
  <path id="Trazado_10673" data-name="Trazado 10673" d="M-539.688,305.53a2.835,2.835,0,0,0-2.835,2.835v11.167a2.835,2.835,0,0,0,2.835,2.835,2.834,2.834,0,0,0,2.834-2.835V308.365A2.835,2.835,0,0,0-539.688,305.53Z" transform="translate(582.959 -228.396)" fill="#0400e9"/>
  <path id="Trazado_10674" data-name="Trazado 10674" d="M-523.3,305.524a2.838,2.838,0,0,0-3.892-.961,2.836,2.836,0,0,0-.961,3.893l4.959,8.209a2.831,2.831,0,0,0,2.429,1.369,2.831,2.831,0,0,0,1.463-.408,2.835,2.835,0,0,0,.96-3.893Z" transform="translate(582.959 -228.396)" fill="#0400e9"/>
  <path id="Trazado_10675" data-name="Trazado 10675" d="M-552.277,304.563a2.836,2.836,0,0,0-3.892.961l-4.958,8.209a2.835,2.835,0,0,0,.96,3.893,2.831,2.831,0,0,0,1.463.408,2.831,2.831,0,0,0,2.429-1.369l4.959-8.209A2.837,2.837,0,0,0-552.277,304.563Z" transform="translate(582.959 -228.396)" fill="#0400e9"/>
</svg>
