<svg id="whatsapp_icon" data-name="whatsapp icon" xmlns="http://www.w3.org/2000/svg" width="27.155" height="28.14" viewBox="0 0 27.155 28.14">
  <path id="Trazado_10624" data-name="Trazado 10624" d="M111.673-407.973c.767-2.347,1.485-4.584,2.237-6.81a1.178,1.178,0,0,0-.1-1.033c-4.467-8.435.635-18.9,9.826-20.167,8.475-1.169,15.667,5.757,15.166,14.605-.36,6.348-5.514,11.913-11.611,12.584a13.5,13.5,0,0,1-7.79-1.384,1.14,1.14,0,0,0-.791-.047c-2.123.672-4.236,1.375-6.353,2.069C112.1-408.106,111.942-408.058,111.673-407.973Zm3.343-3.361c1.353-.444,2.57-.826,3.774-1.25a1.067,1.067,0,0,1,.992.108c4.117,2.352,8.233,2.3,12.094-.472s5.413-6.761,4.644-11.58a11.31,11.31,0,0,0-8.679-9.186,11.064,11.064,0,0,0-11.617,4.808,11.747,11.747,0,0,0-.124,12.791,1.121,1.121,0,0,1,.123,1.079C115.821-413.862,115.45-412.676,115.016-411.334Z" transform="translate(-111.673 436.113)"/>
  <path id="Trazado_10625" data-name="Trazado 10625" d="M178.844-373.267c.7-.171.977.222,1.183.772a15.915,15.915,0,0,0,.816,1.941,1.226,1.226,0,0,1-.207,1.492c-.847,1.078-.849,1.09-.024,2.18a9.088,9.088,0,0,0,3.981,3.073.658.658,0,0,0,.871-.2,9.733,9.733,0,0,1,.941-1.118.9.9,0,0,1,.734-.24c.953.4,1.883.854,2.8,1.336a.769.769,0,0,1,.249.588,2.693,2.693,0,0,1-2.319,2.684,5.2,5.2,0,0,1-2.009-.036c-3.98-.9-6.712-3.423-8.7-6.859a4.632,4.632,0,0,1-.691-3.083,3.475,3.475,0,0,1,1.313-2.277,3.731,3.731,0,0,1,1.051-.4Z" transform="translate(-169.37 380.758)"/>
</svg>
