<svg id="whatsapp_icon_redes" data-name="whatsapp icon redes" xmlns="http://www.w3.org/2000/svg" width="68.604" height="71.092" viewBox="0 0 68.604 71.092">
  <path id="Trazado_10934" data-name="Trazado 10934" d="M111.673-365.021c1.937-5.929,3.752-11.582,5.65-17.206a2.977,2.977,0,0,0-.249-2.611c-11.286-21.311,1.6-47.746,24.824-50.949,21.41-2.954,39.582,14.545,38.315,36.9-.909,16.039-13.93,30.1-29.334,31.791a34.109,34.109,0,0,1-19.68-3.5,2.881,2.881,0,0,0-2-.12c-5.363,1.7-10.7,3.474-16.05,5.226C112.754-365.358,112.353-365.236,111.673-365.021Zm8.446-8.49c3.419-1.122,6.494-2.086,9.534-3.158a2.7,2.7,0,0,1,2.506.272c10.4,5.942,20.8,5.815,30.555-1.192s13.676-17.081,11.732-29.256a28.573,28.573,0,0,0-21.926-23.208,27.953,27.953,0,0,0-29.35,12.147,29.677,29.677,0,0,0-.314,32.314,2.831,2.831,0,0,1,.31,2.727C122.151-379.9,121.216-376.9,120.119-373.511Z" transform="translate(-111.673 436.113)" fill="#fff"/>
  <path id="Trazado_10935" data-name="Trazado 10935" d="M182.541-373.048c1.758-.432,2.469.561,2.989,1.951a40.213,40.213,0,0,0,2.061,4.9,3.1,3.1,0,0,1-.523,3.768c-2.139,2.724-2.144,2.755-.062,5.508a22.959,22.959,0,0,0,10.058,7.764,1.663,1.663,0,0,0,2.2-.512,24.592,24.592,0,0,1,2.378-2.823,2.264,2.264,0,0,1,1.854-.606c2.407,1,4.756,2.158,7.065,3.376a1.943,1.943,0,0,1,.628,1.487,6.8,6.8,0,0,1-5.859,6.78,13.147,13.147,0,0,1-5.076-.091c-10.054-2.269-16.958-8.648-21.968-17.33a11.7,11.7,0,0,1-1.745-7.789,8.778,8.778,0,0,1,3.317-5.752,9.426,9.426,0,0,1,2.654-1Q182.527-373.229,182.541-373.048Z" transform="translate(-158.607 391.974)" fill="#fff"/>
</svg>
